<mxfile host="app.diagrams.net" modified="2024-04-01T06:09:10.349Z" agent="Mozilla/5.0 (Windows NT 10.0; Win64; x64) AppleWebKit/537.36 (KHTML, like Gecko) Chrome/123.0.0.0 Safari/537.36" etag="qkEHKaurfXml8v3pFKp5" version="24.2.1" type="github">
  <diagram name="Page-1" id="DwOyOji2kNxrfbSl4YK5">
    <mxGraphModel dx="1600" dy="836" grid="1" gridSize="10" guides="1" tooltips="1" connect="1" arrows="1" fold="1" page="1" pageScale="1" pageWidth="850" pageHeight="1400" math="0" shadow="0">
      <root>
        <mxCell id="0" />
        <mxCell id="1" parent="0" />
        <mxCell id="DnzYC_w3bC5qt8FacpLg-1" value="T4&amp;nbsp;&lt;div&gt;EDGAR ALVAREZ&lt;div&gt;202001144&lt;/div&gt;&lt;/div&gt;" style="rounded=0;whiteSpace=wrap;html=1;" vertex="1" parent="1">
          <mxGeometry x="50" y="40" width="120" height="60" as="geometry" />
        </mxCell>
        <mxCell id="DnzYC_w3bC5qt8FacpLg-2" value="" style="shape=image;verticalLabelPosition=bottom;labelBackgroundColor=default;verticalAlign=top;aspect=fixed;imageAspect=0;image=data:image/png,iVBORw0KGgoAAAANSUhEUgAAALwAAAAmCAYAAAB+tPGOAAAAAXNSR0IArs4c6QAAAARnQU1BAACxjwv8YQUAAAAJcEhZcwAADsMAAA7DAcdvqGQAABdiSURBVHhe7ZxnbJzFt8aPvU4nlCSE3lvoEHovoghEFZ0rekcg4AIfEOVGAoneJPgAQnARvdcgIPQeaiihpJGQ0EKAQCA4sb17z++8+6zHy3q9NpuQ3H8eGM+8U8+ceWbmzLzvpqHgsABevhhqiKeCNYbfUHSNnl4etwjzHvl83hoaGsIJpWErgjy5XK6UtxzEVapnQUe9ZW4s+iVkaszoniJrjgmRTQo1X674Rag/GhsbY8DRNQTAx4kE+OQhDaRpaRik4QUR6l9ra2s8q+/1QhA+ozeVJooJx3qeZfL1Ae253+bPCJMpvRyV4hahPhCxAXpOHQQRMfB5Lh+LBZ3syJvKCPnl6oWE8KzdGbWD7N54Y8Fj3DW4c2kizSLcVizREeUKXoT6QcQGEABiyFeaHPFMDMLyccq7oAL5RPimpiZra2srPdcL2XLhQA0VKFx0oNHaGprCjxmRZJZCF2HeQQOPnrXK//rrr/btt9+WiCFSkz537tyw6YHSFF6QgZx//PGHTZs2zf78809raWmpK7dKh1Y2DQIcTDFliG1XTaO1uKLmeqhXODdpCtluQPFyJS7oSv3/gK+++soee+wxGzBggB177LHhT5w40V599VX7/fffbfXVV7f9998/8orwOE2WBRXIOHXqVLvxxhttueWWs4MOOshWWWWVusmd1eLkLq+uEKTN3NxCg81qMfvJGf+ru7/yOU/PSvynk7u4XgREqnpDNqzqh9AjR460jz76yFZddVXr1atX5Pnuu+/s+eeft8cff9xefPHFKAMowzhVG6uu5O5pvyqV66wu4unHSiutZBtvvLG9+eab0c+ZM2eW0lW2szq6QpHn7YVZ3TO4CeNEz7ub4yb76E8m2iOjxtiTL4+26bOai3c1GeFTB3oqzPwEiv2nyqMc9XBA/Ouvv+Zpv0V6fFb2l156ydZff33bbLPNrHfv3pEGSGccJEs6Lun4lLuuQB7MJPqJmYEZhauGWutN87GS04cDDjjA1l13XXv55Zft7bffjjYroZY2UjjhKYAyi6tIuILFsRTFuWvzXGMnTbV3Pp9kb4wZa7/PbSsRXgKXC76gQ0RAZpGpu2DA3333XbvrrrvsgQceKF2l9bS+SpBO8Wnvgw8+sIceesgWW2wx22mnnWyZZZaJNPpCuyKM+qeyqVOa0tNwJag/o0aNsocfftiefPJJmz59ek1mRmf1IgcolwNQL/3bdddd4/nBBx+0r7/+OsqgA5XtCTqs8Gk1Efb2W/MFmz3Hw3362dzeA8z6LmbNHocK/knD/waQV4OXDkT5oHSnX6NHj7bbb7893Jw5czoM4D+F5MCnzhkzZsTgc5hbZ511bKONNiqRXG0ShhR6Vh2SS/FCeb5KUJ5HH300+smE+/HHHyOuGtK2qF8OlKfRD5zSCa+33nqxi02ePNluueUW++233+Ig3tXOUg3JFM2MmfJu53J+6m/y1cxy9kdL3g+vjX5ebS8mARcGoOTyVamzuFqgARTJ8HmutXytoG4mEzbt+PHjrW/fvrbddtvZkksuWWpLExmfKz3FS0Y55UvDXYG6cNSLaYEJ1Z0+0hZQPWlZ0nhGd4rXM/1bc801rX///vbxxx/HDsMuCunJU6v8KToQPvVLInEX77la863W6IejtuJzu8jtHVoYgKypvHpGed3thwaIcpABENfdeqpBdX///fdhy7LKDRo0yLbeeutI1yQD6acF2voJS06F0/juyEpbuJ5cFUoGyqVO8UBhSE2YiQXhl1hiiejP66+/HqaUiJ6WrRVFwheFib/AZ1v8decB6s/lXLH+TBvZXtDeYOYpLrwFFihu1qxZ9tNPPwWJUCD32SI8Tih/rgTIqDz4Ilw9oHohwLhx42zSpElR/4477hg2Lum0JUeaJoCeOWT+/PPP0Vcc4ebm5g5lgfxqIE9aTvLVCvIzWZABkwh58LmFQSbkBfSB+vG5muScAqZMmWJjx44tTeaeICM8Zor/x4M3Ey77UCwfHxKAgjeS81U+5zI15n1Libxs5yiAQcZuxLbycBTgT+bRDVzPROw5UKCUDCA6txvXX3+9XXTRRXbGGWfYOeecY1dccYU9/fTTQX7yS/EoljA+IA2neAaFmwsGhjie03wKA9WTplVC2hagTgg/ZsyYIArPEB4fV6k+4qnns88+szvvvNMuvvhiO/nkk+3UU0+1Sy65JGxwrZSUVX8Ja/XGqZ+qn7AmFI52gNJTP+0r+TDJJkyYYI888ohddtllIctJJ51kZ599tl166aV277332ueffx76VD2Ug+xcvaID0iD87NmzS7uAZKgVuREj/mcE1M0AWbPVHaudZiF8s4/Bx+Om2pSZzTbA5tq2Gw6zoQOaPIXOkJecmZBZXXKZV54yryFFS9ls9bzM4MB3zz33xGr5ww8/xKrCnTZvKz/88MM4FK688sphO6JcVm8GmHysQkwYDow8s3JiXmBbUh/59thjjxgIBoR6yatrPO7KkYN0fMknaOBSHwfJaBvZf/nlF1thhRXsiCOOiPqUT/jmm2/i1og3lcjPJHnjjTdiovCMXKyoEIsXVxCJvtJPTTR82iMvDvnpB+Hnnnsu6sKm5p4cn7bIQ7r6y0sw5JL+ieOdwW233RZ2OO8L0CW6wGdsmJzok6tIZFJZ+sm4vP/++zFp+vXrZ5tssokNHjw45FW+WtFQKORd66zVrOc+g/1wSvGCtQb9fXjiZdP/jnzLXpn8mw2xWfbf/7WfrT+0b7x19SGJ3LisWd8R4i1shoJHzm/CayUCGkhW9ltvvTUGHNKwVaI8FP7FF18EiRmoQw891A4//PAYTAaEenh7effdd0ceKRdFQ1wGgzqIp97UxJEM2267bdS71FJLhWyprY1TflD+DCAxOxLE2WqrrWKF7NOnT6Sl8rz22mt28803Rx+Jpx36iVzIwqrO5IacyDl8+HA7//zzbejQoaX+cO3JrgCxAeVIw1GvJi99wcYmnb4InC1OP/30CKsvmGKs4hAbnVIOYmOWMRExL1mANthgAzvrrLPizarapP4vv/zSzjzzzCA8L6UIb7HFFiGv+l8rOqzwkL59hcekgc7ZCj9m/FSbPHOO9fcVfpuN1rEhvsIXv9SIv5nvAwjhU3i0cpSlzDNI0SIVgNSsxNtss00Qet9997VddtnFNt9881AqKzX5GQxe5jAZ0rIvvPBCkAB7n5UIkuMzCCIxKyOrHPGEcayAK664YpALkmoQBZ6BiEWbcjzjnnjiiVitycPqBqmQsxzYuKyEtElb3GMfffTRts8++0S/6RfxEA/5ycdKycGQuukH9930FftafcSxY0F28kFa+ql00rQrDBkyxHbYYYfQB7JT5qabbrJPPvkkZITMJ5xwQrxYYkdELq5XmZQsMpoIlJeeWGgwOZGP+tZYYw1ba621YtJqjGpFDwk/LCG8SreTPZWBoJ6T6HkKER2FS/GYA3xfgqJRFgMPabgBWG211eyVV16JAePKj0FgBRMJITkrOSsh5F122WVt6aWXtuWXXz52EFYp8nJvTBx2JysreSnDnfmwYcNKkygdJA0qUFj2L8/k5cUWqyt92XTTTWN1Uz3kU30Q/r333gsyYq6MGDEiTDTahUz0CZkgKSs9+VitkQ090B7kZSfgmT7QH/pLGP3IrKB+HH3FkYfJo7e/yAXYWe+///4gKm2fcsop8cKMvOiaulQOOWRi0ScmlojPOwCIj26YoOhBu6n6Xwt6aNLsb8OGOmE8H0NEaUpA+RKtO+7KDpqpXbB/ChQB8XEMKoMFULImBMrUasUhii/0mBQXXnihrb322jFIKJX85JV5JCIyALwQwb4m7plnnrGBAwdGHrWBQ5Z0YCAN+YmjTuoGysdkVDn8ww47LAhPncjJDgUoRx6An5o0kO7qq6+OdihHP2iLZ0ykyy+/PFZlVtYLLrggzAkRDKh9IDlOO+202O0gP2VYmYH6BZj8Ol9QH6YM14nUy05zzDHHlEw76RUfuQB1SSe0iyPt4IMPDrOHuvfbb784hGOCpmVrQZWc1cgJubMckD1zWXzmHB2KK76YNo+RKkoDx2rOKgdQJkpla8dmve+++2IVhxQMEvmBVhqRgPpwqh/lo3B88ilNedW20vCZJKxWV111VRDy2muvDXfNNddE3A033BCHSpVj0mHjamC5gwekyVc4BcST/PhAJMIkYGUlTP30nX6TT+3Kx9GuoDDpQHkBvkwtwtTNboKP7tlJ8VV3uX4BaTzTX7VNmF1EYUwx6gSpbLWg09x/V2GGYt8iPSM6Ee74YYjvCYTJQ2xbBIppkT7/gLJQDkrVysygEoc9ySEUol155ZWlLwvJRzmVBQwADigNJeMTr0EAGkjlBzynYHXnvMBWz4dROGxmbi84HBPGfFI92MkMLiSATEyuaoOs9shDeWRLfbD44ovHTgeYgJBSfVDd5XIDyuNIkw5AJR+HGQk5CTPBZK5IDpCGVR4QTtOw6wVkZix7gm5MD+8Ef9tlSsiePcnl3YNieYSOFjyi+Dnx/IAUx6BAYgaTMES64447YjXlLppbD74ZP++88+KwpYmRDqz8cigel65IneUXyAdxGXhkoiwkFpEhomSmHlZE8isOB8hLW5VAvORI8/GMgyzayUjHdQXKpfWqzs5AHoGwDvfql9Lx1Tc9q400jEmKTz50h+sJOu2pd60YErKY6v3kk+JsnYc6Be+Td89a6UwU7JwI9YSUJOWiHOxVXm7wVSOHMg6vvJDhTpsDE8SCdJSFhDjClchAvaThGEhWYNqgra6A3cntyfHHH28nnnhi+ArzIoYfc2ByAOrDnqcMgBgiTldAbvJTh0ivHQ5bmMlOGv1MV89KUFn0I9Bn6u8MlEnPIuTFNEN+nlOk+taYAfWTeM4lAuek1HTqDioSvrM6NJw0Qhanlf+VQ6ms7tkvo1AFm05YWk4GvbH9N4C8n376adxgMFBbbrmlHXnkkXEDIZKzTeJrgETqSiCPBgXzAEKmh2HKyZUDEmy//fZxL89hFHfIIYeU3IEHHhi3HyIsdXBIpF6eMXFoR2TuDORRHSIOkxLi8oUnB3VIxi0Su1u1FZN2SKc+9EUfcJQvR9pvbl+4ZuQZ04aXe5wXqE99APIBbQDVQV5kxuxSfyG86lBcrShjIcIWgwmoMirm/+whCI8ai2J5wAfEQzjif2tutRmz/gryz/EIJgL3QerIvASy0g6+FMNbSK0SXB/q8IQyNXA8o3DK4POMo7zCQPUCrse4eeC+W6uU0oDKCDzLfNGAqU1cSiI9cw2nehl4kMoH0nbIR930LQWr+jvvvBNnFkwEyqALXuak5SuB9L333jt2ISYl17LlZSo977XXXnHQhtS8S2CH5TYM+aQvQDomp84TxEtHTHJAmHHjlod0+tldJPfwrjz/z9UfT9aQPeEg7CcTptk3M2dbP1+zt954mA2Oe3gfpCxr5MN2b3X39Xcz7OnnRtm4iZNcsAaf6UNiZuU8LeouQ08Er4ZU8dSN4xsMXl+jNMALJ1YtVnxuariHZ5VHodzDk4ai2e5T+agbpwHj9oDrOe6QKUPe8sFIw4BnyuNXykd5TQLyISOfCEAKiIZ82tIFyjCp2cVYTbUqYr7g8ykBRH/qqafi5RJ1M5GOOuqo0g6SylIJ3LJwfcl7DOmlWhlkYvdAT5CdmyN+d8s3NfqQDTOHseGniRzg2RW401f/AZ8iPPvsszFJSdt5551DlnRxqBVFwruy3TUyUEWaE+FDGiv2bOfI2C/H2S/Tv7dcocWGD9/UlurfaGyCTXnfWgvuPHehIWctXm7kax/YmPGTbfrMP6ylLW9rrLq6DezrhyPVnyipKyX3BKoTpUESFMPqhtIhsZTMio8iIQFbPISHYNwuMABs27w0SkHdciI97aQDJCifkE6E8rRK8eTHccMB4SEyg85BWyaGJg75eJnECk4eSM6385gR3P5wF06fOcugE/rFS6ANN9wwygLqqwTJIbmq9TcFzzgmKfqF5PSBlZyrV2RFtrfeeitkY4x4I80LqrQuJjH56DNE32233WIi0ffOZO4MnrujkN4z/mT/FxVRaM3b4n0abGhfX2EG+kEkCJ4hk4tVM1s5waBBg61vn34uYC+3txb3LTxnrT5zVB+QEtO4egJlSCH4vEhiS9ZqxvcZ3IezekCgPffcM1YXVlM+dGI1QvE9kU8DXY5KcdWgejgnYAsDCAuxiddkJoyckIAVGLscMwKCkIc+kY4pRRomCd/QQC4gAncHlfSSxhGWScUueNxxx8XBHPlkTiIX8iE/OwarN/Z5OplYhHjZpXFkTHgLTHn6XkmOauj4b0smd+VE5ht8hXRqN3v0tOk/2y+z/vS4nK2+6go2yJd3Pl/KBdE5XGHONNkczz+z2ezLCVOstWWurbnKijZkiX7Wz3efJoQsdgTQtDpWT6hL+ChKSmV1gcza0lEer95520gaKw3brF51c3gUoSpBE4p02lK7af7OytYK2oAYfEvClSorN3Y0poj6Rx4cYPdih8LnNor83IwgB/3kTTI2O5OI8poUCneGWvqn9BQqh0MOFhgIjHzsRExCSM5YIB+k160UZdgVeBnHKs89Pm+a+QZK5yDydEfHQXjEzIp4qPTgdqr/5aAJ6fkxN/OVZCyn3h7AJieG/zLah8FCpLV4ZpcnfkCCuZNrwEBy8lBBERK2OwLXAtWLn4bxNbj4MguIF2mIh+Tp4Hcmn+oU0rZAZ+VqBfXI8cXhddddF2TB9uabflZFtQVEAPqRluUZWUiXU5rCKt8VlBdU61+aDyCD2iKs1V9x6Bu9E5+u3Jih9BszCDOMTxrYpUAt8pajVCKr3jsQncicU8GaPNjLCdvL6dwn32L9PdzbTRrooMMqV444p27E93LzZaDX3C/fan0Lrda7gVQytyuhXCH1BAOhQaYdDbZ8wDWiCE8efFYN4vE1mPIroTwtLVOtXHcg+blCxQRBPj6JYKdSmtpisgL6IgKpT8ThRCbK8Cyk4WpQe2qzKygv9cvHIROOwzdnJeKQX/kIY1ZyEOeDNs5e3PhA9rRt+tIdRC8prioonjnIkvm+Dfja7DagL9ccY5vaWjwB5XZsjDogfGOey0g+JXXSeb5Gz5Z3Iz7aKQqLLzevICILGmhIQJjVRHlQMOF0dRSB/k0gGw5S8F09ZxDsWg5xmGHISZ/IA5lTnarv5JEJIFKpf/iKryckB/VLRnx0nsqFvgHpyA8w4ZiwnFe4QeMwyxeiu+++e6k+1dFdFEu107zDUyjOBW90usclOpH+J0exMHiYFrHSQ2pio3OR7hF5VyKCFZxkTdkPFlJCydUbIUPI3hGKU7solThkUhhFandgADQg8wupPpABp/5gf3O4ZmXk0M1VYyof+VL9AtWhfCIV/dQOR1otBErr7QrKS9spaFMgLW1XdWsX4gqTmyZ2t3PPPTfS0voq1d8Vkl7SmFeQPcRTOyB9GDGekBHY3CYPwrvX5JlxvqBHnpgouFyTh3014R9h9TINHkbAcldvVKtfcamiywdbpCjPNz9QLq9APKs8hOfTBA6kXDWyCqbkwlUiAv3orO5qaSlUfy1I85b7nYF09YUDLlfD7Dz8+5Lc9Agak67qq4SsZMb1ElSNouExUyEMGycv9+3xMRgNFjPjqX3eqrZ5Hv61YcqUKnT0RMj/dKAz6Y2bCq74uN7j103cX8s0Y6VO8y6MgMz0BbLzDoF/f4cXbSxC9ehbsnxRUXtlHZ+K80GRrNoQuUOOIiKKdByT5O+Q4AvzwMxPyL6GDJCaFzn8TI6fy/H2mOs90rTyQZiFEZKb721468rPGTmock1M3+rBl+wennb+VhfRHQmrLIrjOYvzmKgjyy8HlEdlF6Fn0GGTQSeM46oOn7trbGPZ4gvzQsJuxaGV7224j+dWRqt7PZC8eEqR0lYNQeb2RlNCp3n57+9I66qUvgjVIFOFocJPnwWdOxS3MJIe2ekbvg6uuPpNYrP/A5KJM6y/2yEJAAAAAElFTkSuQmCC;" vertex="1" parent="1">
          <mxGeometry x="50" y="130" width="188" height="38" as="geometry" />
        </mxCell>
        <mxCell id="DnzYC_w3bC5qt8FacpLg-3" value="a" style="ellipse;whiteSpace=wrap;html=1;aspect=fixed;fontSize=22;" vertex="1" parent="1">
          <mxGeometry x="60" y="280" width="50" height="50" as="geometry" />
        </mxCell>
        <mxCell id="DnzYC_w3bC5qt8FacpLg-10" style="rounded=0;orthogonalLoop=1;jettySize=auto;html=1;entryX=0.5;entryY=0;entryDx=0;entryDy=0;fontFamily=Helvetica;fontSize=22;fontColor=default;" edge="1" parent="1" source="DnzYC_w3bC5qt8FacpLg-5" target="DnzYC_w3bC5qt8FacpLg-3">
          <mxGeometry relative="1" as="geometry" />
        </mxCell>
        <mxCell id="DnzYC_w3bC5qt8FacpLg-11" style="edgeStyle=none;rounded=0;orthogonalLoop=1;jettySize=auto;html=1;entryX=0.5;entryY=0;entryDx=0;entryDy=0;strokeColor=default;align=center;verticalAlign=middle;fontFamily=Helvetica;fontSize=22;fontColor=default;labelBackgroundColor=default;endArrow=classic;" edge="1" parent="1" source="DnzYC_w3bC5qt8FacpLg-5" target="DnzYC_w3bC5qt8FacpLg-6">
          <mxGeometry relative="1" as="geometry" />
        </mxCell>
        <mxCell id="DnzYC_w3bC5qt8FacpLg-5" value="+" style="ellipse;whiteSpace=wrap;html=1;aspect=fixed;fontSize=22;" vertex="1" parent="1">
          <mxGeometry x="150" y="200" width="50" height="50" as="geometry" />
        </mxCell>
        <mxCell id="DnzYC_w3bC5qt8FacpLg-12" style="edgeStyle=none;rounded=0;orthogonalLoop=1;jettySize=auto;html=1;entryX=0.5;entryY=0;entryDx=0;entryDy=0;strokeColor=default;align=center;verticalAlign=middle;fontFamily=Helvetica;fontSize=22;fontColor=default;labelBackgroundColor=default;endArrow=classic;" edge="1" parent="1" source="DnzYC_w3bC5qt8FacpLg-6" target="DnzYC_w3bC5qt8FacpLg-7">
          <mxGeometry relative="1" as="geometry" />
        </mxCell>
        <mxCell id="DnzYC_w3bC5qt8FacpLg-6" value="-" style="ellipse;whiteSpace=wrap;html=1;aspect=fixed;fontSize=22;" vertex="1" parent="1">
          <mxGeometry x="230" y="280" width="50" height="50" as="geometry" />
        </mxCell>
        <mxCell id="DnzYC_w3bC5qt8FacpLg-13" style="edgeStyle=none;rounded=0;orthogonalLoop=1;jettySize=auto;html=1;entryX=0.5;entryY=0;entryDx=0;entryDy=0;strokeColor=default;align=center;verticalAlign=middle;fontFamily=Helvetica;fontSize=22;fontColor=default;labelBackgroundColor=default;endArrow=classic;" edge="1" parent="1" source="DnzYC_w3bC5qt8FacpLg-7" target="DnzYC_w3bC5qt8FacpLg-8">
          <mxGeometry relative="1" as="geometry" />
        </mxCell>
        <mxCell id="DnzYC_w3bC5qt8FacpLg-14" style="edgeStyle=none;rounded=0;orthogonalLoop=1;jettySize=auto;html=1;entryX=0.5;entryY=0;entryDx=0;entryDy=0;strokeColor=default;align=center;verticalAlign=middle;fontFamily=Helvetica;fontSize=22;fontColor=default;labelBackgroundColor=default;endArrow=classic;" edge="1" parent="1" source="DnzYC_w3bC5qt8FacpLg-7" target="DnzYC_w3bC5qt8FacpLg-9">
          <mxGeometry relative="1" as="geometry" />
        </mxCell>
        <mxCell id="DnzYC_w3bC5qt8FacpLg-7" value="+" style="ellipse;whiteSpace=wrap;html=1;aspect=fixed;fontSize=22;" vertex="1" parent="1">
          <mxGeometry x="230" y="360" width="50" height="50" as="geometry" />
        </mxCell>
        <mxCell id="DnzYC_w3bC5qt8FacpLg-8" value="c" style="ellipse;whiteSpace=wrap;html=1;aspect=fixed;fontSize=22;" vertex="1" parent="1">
          <mxGeometry x="230" y="430" width="50" height="50" as="geometry" />
        </mxCell>
        <mxCell id="DnzYC_w3bC5qt8FacpLg-9" value="b" style="ellipse;whiteSpace=wrap;html=1;aspect=fixed;fontSize=22;" vertex="1" parent="1">
          <mxGeometry x="140" y="430" width="50" height="50" as="geometry" />
        </mxCell>
        <mxCell id="DnzYC_w3bC5qt8FacpLg-15" value="t1 = b + c&lt;div&gt;t2 = - t1&lt;/div&gt;&lt;div style=&quot;&quot;&gt;t3 = a + t2&lt;/div&gt;" style="rounded=0;whiteSpace=wrap;html=1;strokeColor=default;align=center;verticalAlign=middle;fontFamily=Helvetica;fontSize=22;fontColor=default;labelBackgroundColor=default;fillColor=default;" vertex="1" parent="1">
          <mxGeometry x="390" y="140" width="330" height="340" as="geometry" />
        </mxCell>
        <mxCell id="DnzYC_w3bC5qt8FacpLg-16" value="" style="shape=image;verticalLabelPosition=bottom;labelBackgroundColor=default;verticalAlign=top;aspect=fixed;imageAspect=0;image=data:image/png,iVBORw0KGgoAAAANSUhEUgAAAOQAAAAzCAYAAACHbKQaAAAAAXNSR0IArs4c6QAAAARnQU1BAACxjwv8YQUAAAAJcEhZcwAADsMAAA7DAcdvqGQAAB24SURBVHhe7Z0JkJxF2cefOXY3m4MkQCAJ4YYgN8gZbhUR/ShBQEHFI6WUVnmWd2mVpXjiBV4clieKfAqlBRhAET7ukBCQACEHJCEQCIFcJJvNXjPzPb+e/W86LzOzM7NXwPmH3u63z+fpfp5+uvvtd0gVHDYgxMUJp4rBgK3hbRsp9KbEeQXlLJXWQC3Q0MpPpV7dp6XiXisox99rmadBUMgGtleUE1jhtSy4Qiy+rwd+Ggr5X4DXm9C+njGEChlX2xCCBhqoBulef5CBMso10EAD1WIIFLKhiA2MHF7rO7CaFbI8w1LEhjIOFWoRNvLKCcny/aXHKFV2e8RA98j18EWZweqPqveQ/Wcj3Qnzv6FL/E8qhIpO5dVhcX2Ng4bSyOVylslkXtVXPFfqs2RfC+XqieNBqbhSiMun02nL5/PhGTfSiOmHLugDok3pSVr74zsuT1j58WlD8fWidgtZyqVQxILlw1/53hG9zwAiY0IHQvR/CzTgGnSeUdJqEPdvsg6BOOojTsqkvITjvILqiZVP+RQ30oAOIFpRlJhOxccgTn0b50361J0sn8yv9utBzRayUGw3AvG9akceiCPch5RrfXHmKAcx08CrweBqdgfd3d3W1NTU+1QZ9DkuFpb4ORkG8TNObYuOOB6feKw4SJYZKST7TIomOvtDXF484eLVCv2UXMHEcfWi7p6DBCez+C8iqJRqKb2B2oBg0Kf4OPqxFmUEYUx6HSCeukAcJx8nq4nr6enpS0+WE30SeKC0kURMEz7KVUrBYifeCFNezwJKFuchTJ1xWUCYuHpRt4UsPss5nImtQ6EQacQX/4WYqDkY53l7GMTtFZpxk8PUX58l+5VnCZEETgKlunlOxmuMcKJD8UoTKEsc5UcSMQ+ikbhKlkt8qCzl4nqA4vBBzDsgXmn1YhAUsogQCsR4BxDuDfn2MqhiKuVM+jPlQlGIDynbCk4DW8HgP/3003bbbbfZ2rVrbZ999rGLLrqoT2AqgX5WHpSaem655RZ75ZVXtilLXbRz+OGH2+mnn24tLS2WzWb7yksA169fb3/5y19szZo1oZzii+NZsL333ts+/OEPb9NuEqSVQ7ky9QDaxBdtEob/P//5z705trYnmt773vfaXnvtFXgHlJF1Jc+jjz5qN910U98zUN24U045xWbMmBFWMMTXy0/1Cun/fAiMhUC6kLcsobwvafJOoCtbh9eS89XURvfbu93E+yQ50fOO16SU77Fsypde3lwm0+TlmEmdaLf2eLQQWmGQe1W1PpaGHuU6PO5K0qsdmDifhEnhOXPm2M9+9jNbuXJlUBrCSq8E0UK91DN79my7/PLL7cUXXwxCR5ysL/473vEO+9SnPmWtra1hn7phwwYbM2aMjR49OuR54YUX7Ktf/aqtWLEiLGOhQTziDjvsMPvlL39ZkmfRQjtqW2UVp3Jx2VJ1VYNS5R588EH7whe+EOiGH3gAouMb3/iGvelNbwrxGzduDHTtsMMONmrUqJDv1ltvte9973t99VIGwMvYsWPtfe97n73nPe8J+euhWahxbeFEOCE+93jvdnppZ8wZXNdltuiFjXbzvfPtun8+YFdcP8uuuXW23Xjf4zZ/+Xrb5LznM6iwOhz1DlUVEfwQQ6D37/YNDYigZ/jTgMhn0Egv58iHDxAYheN4EIdrhdoBCN2uu+5q+++/f7C6WIYpU6aENPL86le/ss9//vP2hz/8IVhE4hDQ3Xff3fbcc89gDXE777xzKIOAV1oOCtRD29SF0uMqQfQOFjSJQOu+++4b+N5jjz0CLxMmTAh0PfPMM/bzn//cvva1r9nf/vY36+zsDOPHxEQZ8sdlkpPjQGmuyUKSNV3wTsy5Bnr/d6bH2TPr8nb/E8/Z/KeestWvrLdOX6Pms03WnctYixvRKWNH2/EHTLKTjphuUye0WtatKyyg1mge9BdZYmNMBOr+2rWQimcQk8pVCeQH8QBTFsuGgGAhsUK/+MUvqhr0uF3qfuCBB4KFfOmll4Iivf/977eDDz445AHjxo2zXXbZJVjCT3/607Zu3bqggJ/5zGfsqKOOCvVBQ0dHR6CROu+9917761//alu2bLE3vvGNwXqX6xdAGuHnn38+0LNp0yabNm2anXHGGSEdVMNbf6ANtQUIYyG/+MUvhueDDjoorAawZighvKBkLDdnzZplv/vd76ytrc0mTpwY+p7JCqsJ3VhzylA3/bl48eJQD0veCy64IKwwBoJt1bsapFwTfcnpLIdl6qIVz9o9D82z1b7HyXV12ORxo2zX1qyNsU7LuHK+9Eqb3TN/oc1+cqltcD3u8iWuV2IFZ4q+L9D/vpTt22z6nxBFcDtFJaGJhUB+Nfk1e/OMgCi+XiTbjOlBqBDA6dOnB/eGN7zBpk6dGtKZ9VFU9pKTJ0/us4KUwaIccMABwbJSDkGVdRTtlegWXyybEfwbbrjB7rzzzgHzmkTMq8JAfQxvBx54YFgd7LfffoF/LTV32223wDN5mWToDzB+/PjAO/nxKcOSPqZ9MPioUSGduYLvOQo+Q6abzfXLOvP+N52z/fbezS469yz76Pn/Yxefd6bNPOdttv+0XVjV2nq3lvMWr7DlL27wcr0dFVQau+v7yuCrfv87uONTE+jUajtWeZUfvgizFOvq6gqOMFZFz0nHEo5lEY6Zl+fQP+6SiNsaCKhbSiSaAULIfggLedlll9lnP/vZoLhajsYThYQbmmPE9SVBGiAdq4rVIax4wHPsYlRKixGnKRy3DcQT8aKZSefQQw8N+8kf//jH9rGPfSworyxisgwgXmHVMxDUpJAcuOTTPgipZuvxNesopyPb02bHHjjFLjz9GDt1+kQ7cHzKDpvYZCfutYN99OwZtvcuo30Zm7GVG9pt+ao14VAImjM+oPl8eArKODA2Bg46Up2JL+Gr1T3lS/frrrvOrrnmGvvjH/8Y3LXXXhueyznyyL///vtt8+bNZa0k8dXSVgoIlwRMzwBhQslwWEYsCNaCZ/LG6TgJISCMsJIP2oBoUDtCXJcADXF9IC6fdP3xL5SiBTrVttokHmUkP5aSZTQHaDvttFPIS5ryxmVwCgPyKlwvarOQ3hbtFU9FGYC8HbLv7nbmCYfbXhNbbLQ/t/R0WUshZy3eFxNazGYcfbgrcZMvbzO2YfMW2+IGtdhPvaes2yD5PPRQx6ojNYgAC8Zeir3TsmXLwgkjyy2smfLHPk7H61Kw3/72t+FwJFbA2ClNSsmekfqTAoCvNtjfsNfjAIL22Nu0t7e/ipYYPFOHBFJ5JGzKj0/d1MmBjiy2yuOUDxfXpXQ942LwLMUFtE0f48d5S5WLxwWgxJwE0wdLly4N4/Pcc8+F8ZLCAvmxchLGiV6cJgX6/uWXXw780w/EKz9lyQOSSg3i9HpRk0LSVMb5w3DjWjxij53H29Qdml0BO6zZFTGTanLufTnk+ah8yq6TPHNTsKib2jusuwdmPIGOKvZVr4Wk9oExUw/iDiSMo2NZTvH+74orrrCf/OQndskll9h3vvOdsMn/+9//HgZMg6wy+GzqJ02aFPYhOE4zeS7nyIPPbExeloyqT0Kguln+LliwICgxSyqWVt/85jdDmEkAgSQfLgnFiWagONUPUOyrr77afvjDH9rvf//7Pj5JFy1xfoE4IZkGSE8KNZBCl6ILnwkhBvmg8e6777Zf//rX9t3vfjeMDf3Aa4mrrrrKbr755jB5Um/cXuyrXcUB6ka5OWW+9NJLw2Sqk2DyJesBcRgkn2tFTaeszoGlQsc5MzDkWudd6WrkHY0yuSKmC/7kWdkrdrhbtLbbLrn2n2ZuOU8/eE+74LSjbFe3nKl8UTPpbmc1qKIvhGioiIHxVTWSwsZAIYTXX399OEXkhbiEhXyEOY3jRfCHPvShsLwBlCOdGXr16tWhrlpBHRyvc8AiS/Lwww/bj370o2CZaZflJPUzcyOs5IMmJgL2e5weHnLIIb01Fmmmnvg9JIcxX/rSl8LpqdLlc3HgAx/4QLDCHO1TH8s3aFNf4QCCzwTFHvnII48M+07SyEd+rE3cdwC658+fHxSeyw5HH320ffvb3w754IV0+FQ70CQrjsOi8r6TsYFWFEZpAn0xc+ZMe/e7390bY+F97le+8pUQPuKII+ynP/1pH9+A9tVPKDX9xCkrSs8JdLINwB77P//5T98p64UXXhjCA0FNFjJoS8r3HO4gLe0MpNE+GPOqciij97+PhfnqNewX16xdY9bd6fvNgk2aMM5GuzKSnwrylA0kUNu2zA4XEBwGQmE6nVsZ99xzTxAYLBancRyV8xpAm3zS77jjjiAgKkc9WDryclKJj+NUTuFSjhM7Ti7Zt9GGlpW0oyUdIJ7lM0pLft6LYV057eOQZMmSJcG66d0hkC8eS0FKQx4c7QKEXW2j/NAEKtWlNOpA6c477zw799xz7Z3vfGdwhL/+9a8HhYcfBPpd73qXnX/++SEv7uyzz7aPfOQj9vjjj1tzc3Ogj7Ypw2rlH//4Rxgb2mJVwfhw6kvfMV5YUJaz8C5FE+3loP6mDH0uRddkMFyoSSFd34olVKrggkik+zlXLm7nZFK+53BVzLrSdvq4Ll62wpUx7/vJtE3ZeYdQNMfJbFDuXqHpdcE69j0MHxgMDZgGkFnxLW95i335y1+2H/zgB8FKsWTlRgt5cCwfeZcGNOgMKoMpwcRH8BjUUg5QToKneOrBUqhO6kEpoImZnqXalVdead///vcDTUwElF+4cGFYziX3ueKvFKBPeRFA2pVw4iseKF85UIY81MnhFMqBDz0IOhMHPlZVe2XicMpPmD6EX9qnLsJMlA899FBQTBTvpJNOCu9J6QPegX7rW9+yT3ziE/bmN785rCTEN44w/dMfyAuvGgvoAISHA+VHqQSwg+wFvYt63x/iXNjSWWfE40IuH0DfS/Z4/KIXNtkTz69nerXdJ020qTtPLO4//Q8dhFXV68etrzpYBlce9MEEdMgxCPgsGZmpOfY+/vjjg7BjlTh1ZBnEUgYBYcmEQlJOg44vAcdJQMu5OF30AOqhXtVNPtr/+Mc/bscee2ygCWvNzRloRThZqlGe5RwHEqKJstRTDkojH3zxTDlNJEB08ay4UlB7gFUCS/vTTjttG8fylv5E8bmeRp5TTz21z3GFjaWs3gcCDlpYkeCjjKR/8IMfDH3BhQYmNCzkmWeeaZ/85CdDfEy7FLsc4Jl0TX6A8lo+DxdqVsguV6luLxaGsFdv8IKDEWr0TlyzudPueuwpW9lmNrq5xQ7dfx/baTzrVaxHccDD4HnMtvrXV1t4GmrEgyZl4uXvW9/61iAQsgzkw/GiGIUEzPQaSEAd7O+4FcKS9r777gvKQRi/lFMaeXGcmsq60V4sRFhtFJE4peNYtiLovLzmmf0Pe1+UC5C3ElQP0EQgPwnlKwfSKYtgszzl/qgc1/FwTCAoIkrE5Md+VnkIf+5znwuTIQomHtibc1DDeKCQJ598cpiM6AvRT7s4+oilrBDTVA7kUZ+Kf57767vBRvUK6XQxFL6i9jAK5YPVa95SvlxlP8mSNZdqsg25rD2y/Hl79rmV1pzbYtMnT7DD9/X9l5fP+L+8L3HJnPelbI7q5OA9LIMhyyOGSSmBBoTBYMDZnGtAEAoEgneMnHBy6COlYOBUljDLKk49WeZyUsc+iuUuy6pSjjw4wpRjf6T3kABfQqI28AWeAbdoUEiEjuUgeyyB8pWgdHy5JKqpI84DXVhBFI+JhD7lGRqx5CgWExph8pBOPsLkIYx1Ih/9zzJVS9kdd9wx7MtJw6k/1BfqJ/Uhz+V4Ii3uT6D4JErlHWwUOagSaafFV9fWzKdU7ty4O9O+1/AlKkrqomMbvcplG7rtvseX2ca2dps0psVOn3GkTR7n5p86/F8B7fO8aQbRS+UQttAAfxBC/g4t4zE0WAygBJ4wgoDF4rMbFIa7kFi0UgOGIkhptFfC0iFILGuJK+XIQzuE2T/xTD0IGu3gqFsCpjjFA/JqEgHEa9+mfPj1otay9EFcBtp5ZhKL+5g49aPyAOJwMb8cVNGn1IFlZfUC4jyU0TjQp+SNkXyuBqJvuFCTQjrLls51ByVCZ/IoJnfjwnlqyjr97+ous38/+owtWd1uTaPG2owjD7F9dpvoirwVoYxXgFXNOr9ZBsjji3X6QKVZpgxPR2jwGVAGTMK/atWqcOMGS4dVxOpwSshSiiVRXBYB0GCzjOLUkE9xODnkwjGf5ugEsZQjPz770+OOO67POkvhAEpHO7FTm+QFKDXx8AIk+PUIYr2QcpQLi9Zkvyld+QH0A5RL8SqPcgLiqScGfRUrPWEp6vaOmhQygMMb5wvW6KIC1jHfbT2uQFu8rx56YpU9umCRNWfTdtT03e3kQ/e0sdkeb6jTnQuSF86kMh720nQQ1+e8HK9A+Jf2PWYq5VpNvcMIBosBZPBYnvLpDY6X7Sgip3m8azrmmGPCYYoEAxDW4PM6AkVECfmYGEc53u2VcxxO8PUFZU444YTwGoO6EFb5CKWUDaf25TOBoJCksdTDYkqJQUzvUEM0CrQNHTh4EU1A+cgjRxzjoHq0AoAvwKqDr1biOukflZUCa0LDV13bO2pSSGfX/2DNgjoR4Z3gTHuHdbmSPbn8Zfu/+x8MirXX1El2ylEH25RWT3Yl864L5fi8KogGWh06zGc4ryxHB/pTD99Z9mBri4MzXJAwMMC8OuCAhXdZfAWur8nZ72hGJ28sNCpPOsKjfRH7Ju2hSjmUD6c8KHssOGoHPz7xU9sAAZw3b144zEH4OHTi5X9sKfCHC+qLGNAqBYEWaINX+kt5yRPzDuANvjlJ1YEWygi/WEnVS7zKiucYtJeM2x5Rs0J2cuDi/2XdoqX4NjKTtU2pUbbkpU0269651tHTbRPHt9pxRx5kk3fKWoeX22StvrdstQ0ebnPHYiN8sJxtsa501ta4/q11o+g7HitkWl3nXegTAzPUYBAZVA4NuB+JlWQQ9ZkNg00e0lFaCbhmX8XFAkUaQhDHlYIEJc6rOOrF8vFM/fF7T5bRtMELdD5j0jszvliIPzgmD/UMJ0rxTP8CTkDf/va3h2U6K4JKkCKhkPBFH9Af8Ms7ScLwTXvikWfdlsIRr/D2jpqnTTdwRb/gQuL/eAWybG273fnIQlu+dnNQqnS2yV58ea3dMXe5/Wvu03br7EV2u/v/nvO03T3vKVu+eqMrpSt3OmULn19nN9w+2/73lvts7uLVtrHblxwFHwRPB0PdibECMHCyUAw8z4888ki4HcOBC+/AOEXl/SNCzuzN8olTVw4dYqEnTB0IYRyfBG1JmEQLIAxNlJeisyzlG0KurHEVDCvO/pbbOYsWLQrCyc0fXoHoOz5oRKgrQX0c93U14XKI+RAop3gmC5bovFNFMQHppepWOaw+lyK4Hsgzl8m5GMHVvdtvv73vNRLbDE62+XCayYu8cvRjLVDbpegaKtSskK4pUOqE+qzjlmxNR4/d/8Qye2TpKmtLt/rStdlWrd1g98ydb7fNWWA3zVlis+Yus1kPLLZ/PbjQ7pzzmK1c1xas5GZ3DyxcanMWPWvzlqy0h55cYZu6XIDdmoblbS+Go0PoeJSCttgH6oNd7pIy8Fy05o7jb37zm3B6iaKghAgAX/GjqKIzOfjVCEKch/LypdiEWUL/6U9/CjRwL5U7nSgoV+aYILAgF198cVBK8sd0qM5ygHYc+eJwnIYrh0ppMR3ki8P0I+lxWzGI17jwfpg9N3d1KccSnd+64b4pd1PpD772R0GXL18e+kSgDlx/iGlJolLaYKF/SYngQ2WZQE/B93tp68wVbMGTi+yphU9YuqvNxua32OjcZmvpbrNsl89One462qzQ0W6prnYrtL9i1rHRsj3t4dQVN35UxlpSnTY63W07tqbDnVcunm+9uTN8oLMRFpapXL/ifRhWB2t04403hkHmZTenoggE1mfu3LnhVgwKLEEDgzF4CBT1csdVJ68sx7DQ7KN418iylf0nyz8uO/OVuw4/qm2ffFIE6mffK6tKvHhRuBrBLgXK0kdJF4M8paC2uZHExYFzzjknWE3Gh4mKyZFlKlZRr0XoB2gVzf2tFIDaYWwZ43p5rRc1/wxkLlwIcE1253bClr+41l7e4rPeqDGupJye8tef6YSUM8TyM+9LN49rSuWsKbfJpk0aZ+NauIKXsk2+7Xl4wVIfmKwdsOc0mzY+43l8QxlepzA4xQEqN1CDAfGGLwHBCj722GPBIaT8ng2XmBloBp3lETdHtB9CYWIBGyx6UUpo4b0iEwLWkP0tSomAcaka2rjVwjNCBCRUxCFUlb72APAux6oAoUag+ZqFiUl5BMolv/ag/qEYJ9GluukPwLKVfSQ8wSvLdOiFLx2qqQwTJ4pMf+hrDyCeyEcd9BOWlkmWulgVMeGV4msovvaoWSHzThi3dKCPjzVy4YKAh0OqV+gOkUAsKUG8/KBiXgjFRB0pn0+5wATFdYtJ4a4t1pT10h5XXLYWO2IoBjqGZlINDAOHMsA3TsqmZRDpSlPfkE5Y9QiKqxXM/pTTsk6gPrUF3aSLBkBePRNmQkEgK31+BVQvdconPW47jhsOhaS/Zalw9DsgLHoBYdomP36SD05l4RmUU0jK6mc3OS/AArMEjhU7xoh/fuUsW841K+1KmMm7tXOlGpXvtqaefPiFAFyr8zfKFbaFNC/Bb3CN8vAYV8lmd03OV9oXqyl/Shewhp630ON1dHid3ZZuckVAGQd5YMtBAxKDQdQA42Mp8BlYhEMKoAGPBUAgHQdKDWY1QPikjNQlYdOz4miXMD7Pald+LRAPcZ34cvXyMlDQrhRTfBEnntUn+Bo/9R0+k2wliG/1p9qhruFE7a1Rgv7ovRDADyDzSwFZ309y6ybjjISPmHF0kKdlCh1erKhw7A2xhvxQsvlyNthNtwTBKHoUX5N0YTV7LeNQQwOhQWRAFAYadA20BkogTJrKER5MxHRIOIgT3bIYxJHOs2gULQhkJShf3JbKl+Ip+TzUUP8rDGIa1C9KEzQ54TOp4pcDdbAiwTLqFhBL9YFavFpRtUKGwfE+YPh9uPxPk7tmr8EdM5GPeXglQkcR0PuRoFgtPtqezxWNvSX1hD4Ma1sqpR4OIjK9ttOzFiiHK4KOlcAMJmJhZVA0uPCL0yyreHwJg+IAYdE4WHRSp9qPadBzDJ7VrmhM5kFgJdy8ruFnSuRYdqpcjJgfyuA4RGEPy6sg6CNd7Q0W74JoUr2lxkttxysKxcMvYZRRtBInHuBdd43hh29cdQ+ZX0ygLOCZ/JSjDL4mAOqM+R5IH1S9hxQG0thggE4eLgyU1+GkNQloV/ss1+K9EWl8sqUrgAgr7/i4d8sBhoQ4xrPPPhsOOPCpF+FGMDn8oB79bw7idgcDlcagUjsxD4T5JI6PzSmjbydRMpQY/mfOnBkOzPjpFvbcfFHCb/Rw4g7uuuuucLdZExf8c60SJcaScneZ/tPto3qxba9XARgaSTecKNV+LW4kkBTgWEFQTCwBPoc7nBLjUCp9rhXnJ4wwy+cCBPlRSr6CoYwuUiDE5BlsvqmvnCsH6EVpRDdhnQMA+gD6uWgBP1z8QDl5bQI/KONZZ50V3kerLRQPhUUJOe3mUzzqQaGpFyea1E49qNlCNvDagAREw4sA6v9+pTQBoeWUlJ/0154pLgt41cLtF1lYoDxYBN6X8qNfCH9c90hAE4Pow0eZ+L93AeK0r1Re3uNyV5lfJaAP6Auu65GPdK4ncgkktn7Ek44S88sSJ554Yt+eXta5VjQU8nUKDSs+wqE9kuJiYcVnGYcgSqGUhsDKyrDXIh4Li2Am6+A1gZ5HGiiKlAf6seA6rAHQKVpJ5zIEfUAeytEXpIt/wvAfn7jTJ6oDpYwns3rRUMjXKTSs+LHgSLgQOnwEV8/kA7IKEiz5lFW88gDFSUhHGkk6xKd4Fr2Ek89xWeKA+AbKp2eFqZ9yiq8XDYV8nSEWFiABi4dZQiVIoGRRkoiFVOVUB77S43wjCdElX4jpixUU4Kuf4nKqB5TKE9cPlFZvPwyLQor4BhpooDKGZTprKGMDDVSHkV9fNNBAA31oKGQDDWxHqFkhtWmttPXsLx1Uk6eBBv67YPb/x9GtmHQNEowAAAAASUVORK5CYII=;" vertex="1" parent="1">
          <mxGeometry x="50" y="560" width="228" height="51" as="geometry" />
        </mxCell>
        <mxCell id="DnzYC_w3bC5qt8FacpLg-27" style="edgeStyle=none;rounded=0;orthogonalLoop=1;jettySize=auto;html=1;entryX=0.5;entryY=0;entryDx=0;entryDy=0;strokeColor=default;align=center;verticalAlign=middle;fontFamily=Helvetica;fontSize=22;fontColor=default;labelBackgroundColor=default;endArrow=classic;" edge="1" parent="1" source="DnzYC_w3bC5qt8FacpLg-17" target="DnzYC_w3bC5qt8FacpLg-18">
          <mxGeometry relative="1" as="geometry" />
        </mxCell>
        <mxCell id="DnzYC_w3bC5qt8FacpLg-28" style="edgeStyle=none;rounded=0;orthogonalLoop=1;jettySize=auto;html=1;entryX=0.5;entryY=0;entryDx=0;entryDy=0;strokeColor=default;align=center;verticalAlign=middle;fontFamily=Helvetica;fontSize=22;fontColor=default;labelBackgroundColor=default;endArrow=classic;" edge="1" parent="1" source="DnzYC_w3bC5qt8FacpLg-17" target="DnzYC_w3bC5qt8FacpLg-23">
          <mxGeometry relative="1" as="geometry" />
        </mxCell>
        <mxCell id="DnzYC_w3bC5qt8FacpLg-17" value="=" style="ellipse;whiteSpace=wrap;html=1;aspect=fixed;fontSize=22;" vertex="1" parent="1">
          <mxGeometry x="139" y="675" width="50" height="50" as="geometry" />
        </mxCell>
        <mxCell id="DnzYC_w3bC5qt8FacpLg-18" value="a" style="ellipse;whiteSpace=wrap;html=1;aspect=fixed;fontSize=22;" vertex="1" parent="1">
          <mxGeometry x="70" y="760" width="50" height="50" as="geometry" />
        </mxCell>
        <mxCell id="DnzYC_w3bC5qt8FacpLg-31" style="edgeStyle=none;rounded=0;orthogonalLoop=1;jettySize=auto;html=1;entryX=0.5;entryY=0;entryDx=0;entryDy=0;strokeColor=default;align=center;verticalAlign=middle;fontFamily=Helvetica;fontSize=22;fontColor=default;labelBackgroundColor=default;endArrow=classic;" edge="1" parent="1" source="DnzYC_w3bC5qt8FacpLg-20" target="DnzYC_w3bC5qt8FacpLg-21">
          <mxGeometry relative="1" as="geometry" />
        </mxCell>
        <mxCell id="DnzYC_w3bC5qt8FacpLg-32" style="edgeStyle=none;rounded=0;orthogonalLoop=1;jettySize=auto;html=1;entryX=0.5;entryY=0;entryDx=0;entryDy=0;strokeColor=default;align=center;verticalAlign=middle;fontFamily=Helvetica;fontSize=22;fontColor=default;labelBackgroundColor=default;endArrow=classic;" edge="1" parent="1" source="DnzYC_w3bC5qt8FacpLg-20" target="DnzYC_w3bC5qt8FacpLg-22">
          <mxGeometry relative="1" as="geometry" />
        </mxCell>
        <mxCell id="DnzYC_w3bC5qt8FacpLg-20" value="[ ]" style="ellipse;whiteSpace=wrap;html=1;aspect=fixed;fontSize=22;" vertex="1" parent="1">
          <mxGeometry x="110" y="870" width="50" height="50" as="geometry" />
        </mxCell>
        <mxCell id="DnzYC_w3bC5qt8FacpLg-21" value="b" style="ellipse;whiteSpace=wrap;html=1;aspect=fixed;fontSize=22;" vertex="1" parent="1">
          <mxGeometry x="50" y="950" width="50" height="50" as="geometry" />
        </mxCell>
        <mxCell id="DnzYC_w3bC5qt8FacpLg-22" value="i" style="ellipse;whiteSpace=wrap;html=1;aspect=fixed;fontSize=22;" vertex="1" parent="1">
          <mxGeometry x="160" y="950" width="50" height="50" as="geometry" />
        </mxCell>
        <mxCell id="DnzYC_w3bC5qt8FacpLg-29" style="edgeStyle=none;rounded=0;orthogonalLoop=1;jettySize=auto;html=1;entryX=0.5;entryY=0;entryDx=0;entryDy=0;strokeColor=default;align=center;verticalAlign=middle;fontFamily=Helvetica;fontSize=22;fontColor=default;labelBackgroundColor=default;endArrow=classic;" edge="1" parent="1" source="DnzYC_w3bC5qt8FacpLg-23" target="DnzYC_w3bC5qt8FacpLg-20">
          <mxGeometry relative="1" as="geometry" />
        </mxCell>
        <mxCell id="DnzYC_w3bC5qt8FacpLg-30" style="edgeStyle=none;rounded=0;orthogonalLoop=1;jettySize=auto;html=1;entryX=0.5;entryY=0;entryDx=0;entryDy=0;strokeColor=default;align=center;verticalAlign=middle;fontFamily=Helvetica;fontSize=22;fontColor=default;labelBackgroundColor=default;endArrow=classic;" edge="1" parent="1" source="DnzYC_w3bC5qt8FacpLg-23" target="DnzYC_w3bC5qt8FacpLg-24">
          <mxGeometry relative="1" as="geometry" />
        </mxCell>
        <mxCell id="DnzYC_w3bC5qt8FacpLg-23" value="+" style="ellipse;whiteSpace=wrap;html=1;aspect=fixed;fontSize=22;" vertex="1" parent="1">
          <mxGeometry x="210" y="760" width="50" height="50" as="geometry" />
        </mxCell>
        <mxCell id="DnzYC_w3bC5qt8FacpLg-33" style="edgeStyle=none;rounded=0;orthogonalLoop=1;jettySize=auto;html=1;entryX=0.5;entryY=0;entryDx=0;entryDy=0;strokeColor=default;align=center;verticalAlign=middle;fontFamily=Helvetica;fontSize=22;fontColor=default;labelBackgroundColor=default;endArrow=classic;" edge="1" parent="1" source="DnzYC_w3bC5qt8FacpLg-24" target="DnzYC_w3bC5qt8FacpLg-25">
          <mxGeometry relative="1" as="geometry" />
        </mxCell>
        <mxCell id="DnzYC_w3bC5qt8FacpLg-34" style="edgeStyle=none;rounded=0;orthogonalLoop=1;jettySize=auto;html=1;entryX=0.5;entryY=0;entryDx=0;entryDy=0;strokeColor=default;align=center;verticalAlign=middle;fontFamily=Helvetica;fontSize=22;fontColor=default;labelBackgroundColor=default;endArrow=classic;" edge="1" parent="1" source="DnzYC_w3bC5qt8FacpLg-24" target="DnzYC_w3bC5qt8FacpLg-26">
          <mxGeometry relative="1" as="geometry" />
        </mxCell>
        <mxCell id="DnzYC_w3bC5qt8FacpLg-24" value="[ ]" style="ellipse;whiteSpace=wrap;html=1;aspect=fixed;fontSize=22;" vertex="1" parent="1">
          <mxGeometry x="310" y="870" width="50" height="50" as="geometry" />
        </mxCell>
        <mxCell id="DnzYC_w3bC5qt8FacpLg-25" value="b" style="ellipse;whiteSpace=wrap;html=1;aspect=fixed;fontSize=22;" vertex="1" parent="1">
          <mxGeometry x="250" y="950" width="50" height="50" as="geometry" />
        </mxCell>
        <mxCell id="DnzYC_w3bC5qt8FacpLg-26" value="j" style="ellipse;whiteSpace=wrap;html=1;aspect=fixed;fontSize=22;" vertex="1" parent="1">
          <mxGeometry x="360" y="950" width="50" height="50" as="geometry" />
        </mxCell>
        <mxCell id="DnzYC_w3bC5qt8FacpLg-35" value="t1 = b[i]&lt;div&gt;t2 = c[j]&lt;/div&gt;&lt;div&gt;t3 = t1*t2&lt;/div&gt;&lt;div&gt;a = t3&lt;/div&gt;&lt;div&gt;&lt;br&gt;&lt;/div&gt;" style="rounded=0;whiteSpace=wrap;html=1;strokeColor=default;align=center;verticalAlign=middle;fontFamily=Helvetica;fontSize=22;fontColor=default;labelBackgroundColor=default;fillColor=default;" vertex="1" parent="1">
          <mxGeometry x="390" y="560" width="330" height="340" as="geometry" />
        </mxCell>
        <mxCell id="DnzYC_w3bC5qt8FacpLg-36" value="" style="shape=image;verticalLabelPosition=bottom;labelBackgroundColor=default;verticalAlign=top;aspect=fixed;imageAspect=0;image=data:image/png,iVBORw0KGgoAAAANSUhEUgAAAOYAAAAyCAYAAABIxaeCAAAAAXNSR0IArs4c6QAAAARnQU1BAACxjwv8YQUAAAAJcEhZcwAADsMAAA7DAcdvqGQAACIoSURBVHhe7Z13mJ1F9cfPvXd3sykkgZCEJJQEQ+idKChIUSJ2wfKo2B67j73/LOBi+cPHB+yKio8NBEUQFRQIIL2EFiAkIJ0kpJBKymbLvfd3PufudzP7cu+WZDcQuN88k5l3ypkzZ86ZMzPve5Nc2WF1PC/B1ORyua4ns1KpZPl8PvIFyrPPxWLRCoVCV05PiAZQO9EgVnla77mE+FIspPxpvBoPseSUthMdUK1OSh+o7LmQw4ANU4Ooo446hg4DXgrqRllHHUOP536vUkcddTwLdcOso47nIfI64NZCX+WgP3XqqKOO/qOmx6wYm8eW81B55mlz2eYA6ifPOuoYPOTLuZwVPZS6MqxcjFDyvHa3NkKHp8s5rLQjynKeLnl+MeIu0y07hZK3dUr8IRUmW7HbOl5A0GLMKwvFvLJ4IUBj0hirIXVIA8FA2uSpCisRY1xhmCUvKPXwgr7nhXKlooM2FTNM4QzHn+5qdbxAofeIUja9R9zeDDQ1MmLG1NHhDqgLKme8Mtpq7zz7g4G0yZXKm8qd1kjS97UlK/iTc1IptSb3lL7b9cdcGK2HnE9AvuJNAVGj189FGx+El1VMOmfxipvsgY+hju0AUmgpXPZ5e4J4B6QxUC0+KShjfIqHCvlc2a0/jppsSN3orCHSzoKHTk8VK9tYqsAkTJHsqlWpyd+U+QoaafI3D/SFjHRCX8ioNs5USQXSCkOFvmhvSf9pfRmj8rL0SG+NUaa0asEdYWe56F5QW1JYKnCWdKMMs3MGOsNgKwbsh1KqxRlTiGF4X2R1FYdhhnGSMYQry2BDQutN8JoYVlTS2YmshuzKm0XadjBX4v6MpzfUGpPGrxhQt6GhYcjGAvpDu7c6KkvrAOqRxzxpO06egvJqferYF7L9gSxvKdzFFcKgFGheYvsagWdyYApD7YwOqAd7CjhUkBlqV9g+IaOrFlKkedmyFKpXK6jOYCKll/aVDf1Btm5ra6s9+uij9swzz3Rv+VDazk70ZGiQ5VU8ZcNAQRsZCWkZ3wMPPGArVqyIMyd56QI0kH5UdyBtcqWiVw8D5KkrDv9JyhmINL6PkyMeE0Mm5eWyu5LXYxubrACk4glmelkZnm9Iha6Vcvny5d3PAmnqjRw50nbYYYfI4zmtw3N7e7utW7cu6IhuiuHDh0f7LO30eaAQH+pv7dq1YUgYz7hx43qs+tSp5c3VPss3tP/2t7/Zn//8Z3vrW99qp5xyijU2NnbTzY4FiKetQZYPYePGjSFjgCxHjBgRaVCtz5QOafGGHLQg33HHHXb66afbUUcdZZ/4xCdswoQJ3V6TetTvz3hEHx7Xr18f6WHDhtmOO+4Y5bVo5DrKnW5q3phXHV6p5GdMPCYssEDQjEshDJHpw4i5oaVN5TIIMpWzZTkf/rOS1YXq3T5/oEkRJEiln3rqKfvBD34Qz4A8FFB13vjGN9rxxx/fTYNYHoQ6CxYssL/85S+2Zs2a7jbUYctHvZe+9KX2ute9LhQqpVtrwvqDdGUHF154od1yyy2xCHzmM5+xXXbZJeirPGuYyicmUI4nFH+0/fGPf2yXXXaZve1tb7N3vetdwb/aAfGfjmNrxgRS+krD2/XXX28XX3xx8PfmN7/ZXvGKV3QbTxa0U1vKJSugOQP/+Mc/7Cc/+Ykdfvjh9ulPf9p23XXXHnKgbW/jgY7o0+bWW2+1yy+/PIxzv/32s49+9KNRTzSytLCouHHFnMq5Rmtzo1zpR8z5S1vt+vmLbPbcx+zGh5bb/FUle9oNb5OfR9tzfo7wOLa77i3Zy1boYp49URnm8xfVhJsKC09z1113Rbj77rvtnnvusTvvvNPmzp0bzxguk4DwH3roIfvnP/9pjz32WLRnUtjqzZ8/P+rT9r777ot2t99+ezw/+eST0VYKI8VQvCWQUhKgs3Dhwm7e8eCUg2pjB2orRX366aeD7/Q1wowZM6y5udl22mmnWGSov2nTJnvkkUeiPhAdsDXjqQbRxYutWrUq5Dtv3jxbuXJl5AP6zPbLM21lkKRpg2w2bNgQedSZNm1apEeNGtW9I2KeFi1aZE888UQPWVQDdNUXMX3AH3rEFlllhGpwU3MDK1OhwVo7ynbXgoV2zgWX2dnnX2J/v+Y2u/Cqm+28y2+ws869xM6++Ca7/6ln3DjN2vCf3iYQntOF4Em64cyZnjt7iub5A4STIissJk/bF7YfbFsPOeQQe+UrX2lHHnmkHX300bGSUh/B/+53v7Of/vSn9rWvfS08JIrNloU21H3Zy14W7SZNmhQ0dVHCCkwaqH/xsCWAbwI0oA8fBC0AUqpa/VCHQH22YKeddlqEX/ziF7Z69eqogyeB5s477xyemHpnn322ff7zn49tLttn0Sam7tYiyyvPyI65YZ5YdGRwgPJqbQjImzYsJv/6179i28q8YXRgr732ipjdxejRo4Muiy47jp/97Ge2dOnSKK8GyU99kQaktc1O5ZHWEfIVtn1bhaE15m3pmg22cNkq21TK2XqfwFLTMGt1413rG957Fy638y672u56eLmt9/G3uRmWCk1W8k4q6pvA+4G2d/ksL/pcQQJTOsWzBONjYvKIERwTiBF+9atftW9/+9v2/e9/3773ve+FkVIHRcQ4UWbOO3gO8vEs3/jGN+w73/lObIlpM3PmzKCNIkFbEA8oQZaf/gJlo18UFpAG5NNnugjQR7UgULepqcn23HPP4Om///2v/elPf7IlS5aEgrHgsPCgpGz7UHC1UR/0i0yIs/RBtbzegLwUAHTb2lwT/Zl+Oev2BfWJbKjPgov3Z6fDwsoOB1oHHHBAGCZze95558XChBxYiLJzJJrKgx/S1Et5xSuTrzzVz8JnzU2q1GGdEPGMpsaC7TFloh2x/3Q78chDbNaRB9vMfafZ5DEjrcHPoUvccK+/c54tWd1Z+WTPvW3lBNqlYPTT3Zceqne+LVFNAOQp1AJKxQSiaNRDoDxrYlBEBI4XxCsymSeddFJshaijerRRfdIE0uqbmLpAk9YX1EZ9KMgIoKMy0gTGk9bvrS/KGfd73vOe8BRchDz88MN20UUX2eLFi23s2LER4yFR6uOOO87e//73x/gxXNprrARBfRO2BvAu2hor4xPSfrL9qR5z8JrXvMY+97nP2ate9aqgwfmSrTFzyuL5n//8J44CBx98sL397W+3d77znTZlypQ+ZQdUh34IyJOQzkE1FFpa/q8F8yzxRY8bV+PwkTZ96q524F5Tbe8p42yf3cbZ9CmTbMr48bZ40VO2pr1kG1rbbNL4CTZlwkhr9I4rXdPaBSUDDTDxdExe7UFsK6RCyAoFAaaCVhle8NJLL41nvMMJJ5zwrFtUhMyKu8cee9gRRxwRHpG6GAiTobrqk4uABx98MNLTp0+3ww47LBSZeigM22ACFwW1Al5ZaVZhAttJAhMvz5H2Rx6XIxhUOt40nYK25DNeFhouLdgBQP/KK6+0e++9N7bFjOG1r31tGOaBBx4Y9DEWtQfEPFdDrf77guhxtr/pppuCL44Le++9d5/0ZMwAD8huaN99940xMl5uZefMmRPekjJ2Riw4zBVeNJ1XUKs/eEQ/WNA4XzI/GDy0Uh5Ams7Hlz5l33M7gSbP2G3HZttz/Eib5Fvh8c05G+s7oome3m/qGDtm5iGWKzRbq9dfvmGttXt9SDW4fMqliseNr4QIXTe2XCtVn46hBcJQrNUJQZBGAIqlQCBdbSlTUF0F6hOrHpNEHRRy9913j1cSyoe+6hH0DJQWD9DAIP/whz/YV77ylTiv1Qpf+MIXIpD+7Gc/GzeHn/zkJ6MdFzXQEuRB4QcPAFSusRNTD8AnsoAv6hFQesaF8k6dOjU8JBdf8IshoNCcNznvaawE0Ycez4A8laX9A/pSui9QLx0H/GoO076JCSlPKhNPyIbFkUWGxYf3l5yneVXGq5KDDjoovCRGjCzUnv5IZ+WJLMmDPjJXvgxa/ZKvshSFb7W0tFDFq7q34w8nToytbI2+zS0V/ZxJqQ96U7nJbrjnQWem3XafNNamTxhvY/1cWvC6+TxfD1U8ZqVLhyeibZo3hJAyMdBszBmRsxA3htyscZPH6oWg5F2oi8AQKmnABHF2Ip8bSDwmlwEAuqrLJHD7yUTSZsyYMT2EL3rk8erif//7X6Rf8pKXxCrMhPOMot9www12//339/CQ2YDHTL0kgRtk8thSYzzwBH/cAOMxUShezaCAyIIbYc6LpPF8GBXyQI6cseAbQIMzM573N7/5jV133XWxZUVh2SWw9bv22muDLn0wFrVVzNhQUPrDoOkbxWcs8K6+NQd9QXRpA294TNriMRk7no75IDA+5EJdBepyNoVf6QYyYlHk9dKrX/3qGA+7H27h//3vf0cbArwiH+QLLeQDz/DE/LO9hx5j1b0DH2OwYCIDPCbb53Sc2TG7DXoGrz6Aezk+H/Ae3KI6fNSeLrhie3mbLwir16x2g+205qaCjfb8McOp7atFkdWwMSFOXEkrZ1sAIWnCAEKAJ1b3a665Js4NCI5JQ+gYGishisz5ge0oQmSy+gKTwiQB+oAut7JciWO4XBDttttu3eX9BROOsaIs9NFfaNyMi0UBwB8yoX/S1OFiY/bs2bFNY5HCMOhn//33j2045yw8A3nURx68r+RGkjHiTT71qU+F58RAjznmmBgnlyPf/e53bZ999okPDjiPSnmZB5T+5ptvjjlgYWRhQc5s+TFu5M92eLwfmYBkVkt25BMwinRBZq4587L4sQAwPvrHWOkDg4N3FmMMDOPEYM4999xYLNkVnHrqqbEtx9hZfDDO3//+93F5N3ny5DAqFjgt0PCxbNmykCkLFIaJrFjs2EWxk4A35rQaqo2xgSxfzytP4d9QBp8UH2i7G9tGn2/IPb6i3W69Z0E0GO1ectqEna3Jy/L8PtMnn/0qVKIL/vIgE4m8bQQpKDGKwQt+bhJZ9RAUk4iyYpysoijJ448/HhN76KGHRhnKpImvBmhTpr4EPADekglAYVReiw5QP9SlXxT19a9/fRhIf6F+iOEfGkD9ijZKiCzwyvCYLmTICTngybgI4ZxFOW0wQJTt5S9/uZ188slhfCg95ybkiJfiZhPlxvAxXnYBKD9GgZFccsklsQuAHnThDZ5QaHYvzAOvYKTE4q032VGuxZE0cwuvjA0vLLkStDsg5uU+W2+14+wH34zrLW95S4yH9nhixnLsscfaBz7wgVj02M1wEcRHDCyAjEEXYDfeeGPMP/2y6CATYuQKpFf0KdQaHwdM/6NCtpyuUH5GbPfjxqLV6+yBxSvt0eXr7JHFy2zpqjVevWj7+oo+zQ/AjU4/CEc/vipj0y4nHklCtbZYBx/wwuCZVGICE8FqjYJwY8pKyEtjFAFlYeVmUhAqE0MZdGoJDKgPBEw9YgxRxkgZEA3VqwZoAa341GPVBqIzEIgeSPkjUIYhsIqjgJyHMSy2urfddluU4yXwKO94xzuiDV7lQx/6UCgfCxe8YXB4GbZpBJQPQ5w4cWK8B8SroMSArSS3muwkMEqUGQPEe6G4LAj0z/wQ4JeALPsz/nR81Icf+GNxYxwYK4bE4sBWH77ZeqMLasNFDF6bd5d4fxZ0naG1FeXs+ZGPfCQWTOjjSekb/eGLHnYhWuzYLZx44okxVp5ZwK666qqIkUF/gDZ0G1LlW1d8ZsE6cg32wBNL7aIrbrBr5z5kD6/wVSg30vY70LcDJxxuO+7A9ojtYhv+9VkWCM0KtW0LBJFOFIJgFeaS5Mwzz4xbSbYzrIDkATwp2xiUFOEi8N4AXZSYPgBGxWQRaEufxKKjVb0WRAfQBvqE/oL28EOgLwJ0UO40D2AUv/3tb+3jH/94KC9X/2xB3/ve94YR4il4gc7CBVBSblpRXgwPOtBksSNGZsgPcHvJ1hYlpx58YfB8VYNc8cJcUPEumG9soYl3/tGPfmTvfve7Q5FphyFIdr0B+gRkRTv44J0rHzpwCcbWmAWIYwXjpX945n0shkofjE+3pBgfiwwLBF/nsHAgD51PqYfR8Rkl9QALHVt9tszgfe97X3ysgJflPS8e9w1veIPNmjWrWyYpss9CzFYYZVcAMBwDLfn2AEN1IyWda2iyNes32sIlrdbmc0G7Bp9Mfhxd5NO8BJg3IW5nuykPPRA8gTEwaM5rKAOTRB7Gw9gICBijJY0xMSG6uKglsBS0AygSfRIDJk399wXqAeqqjS5xUIreAnWq1WMc8COFJQ1QNG5wOVurL3hFYVnhOW8zfgLfnqZyFKAHXYwApdYCko4DmsRsUa+++urgib4xDs5nkrFkhvfBgDAq8ulDsu0N1KFfLUB4aehgYOTBHyDNmZCFiDzmmsWJfPpnQYKO5EQd+KBcffCsBYM0ekR9dgMcYZADuzEWOMqoQ13RJjBu0esLPnrvyBPdovdtLDmE3SZPsMMO2s/2mrarTRo3xjo3rbfHfGty3S1z7KmnW+Nrn3ZnLoaDHLv6C4OMUhTVY2dyW0FCEJhszhMySIQtIXNzhkCpL2XW5PQG2qeKgyLSTnmU85zlpRbSOqy8XJL89a9/tfPPP7/XcMEFF3QHPpQn8PJf3k6Q8QhSDvELr3g7tpdSXM5jGJ/GqrEQyGOhw8vgFVA+yRFQzjOLBjKmPa9UMErS6pf6MmLRBvTP+Y4zKYH3pWyFSbMVZXeDsQvpOAD0ZDjQhBcu9tgtcLlEOVtu/eJG7ajLM+WcMzFkdgA63kCHMiCeOXPShosgvCJ5ogNEjzz6SfvqDflOrxd9yXY8zpU6rTnXaTMmjbVTjjvMTp11mJ189AE2day7b+/oyWUrbIEPbL3bXC7faEX3ipUNMe099ueKcYroZsCkBjfY0EQo0I+UBkMkZkvF7RnbHbZsnCEkOCCB9iW4wQR8Sy4oC+c8ruy5UBhooB3GIP6hyWIElJcdG/1jkLw419mQCyK2qciD+tnAGY0vgtiqIVegMkCfnNFkQCyO0MoqZqq4gDTn2T/+8Y921llnxfGDrS7xD3/4w4h//etfx9lVMiMAaIhfPQPV4XyMAVEHfRCNFLQhj7Pmhz/84bjwwqjJTwNgrtAfxsQ2H/ppuZBt1x/kcznfmnh9PprtUkkPLqhy0YaX/XzWWLRpo8yOmrGTzTryICv6gDa4NT/sq/K61srL6oLTiMHTNL70qdByKpFX6hJMKoSsQAYDmvh08tN+ufLnt3UtLS2xBeF1AYqoerST8IaCv2qgP/hWACg13opFZKABhaOtjFHQuBSDNA/jYqtFWv2nXikLeNXNbUpHciMfw6Qe+Vw0kZaHJKgdddM8di94NN794R2JuThRmkAdoP5Alg9ixkKaPjAw9U97Fh61QW5Kay4489KGNG3UVzamD7bqkh+yy0J1+4t8wXUh/gW8Ylcnfp7k8zzQ4GXN1mHDyp1upGZ7TBxnw4f5+SDfYCt9y9VRLIW3zHnc4MzzT1lWjNP/il95FnwjS1wZ8LYAgtGEECMQDvJ8SP7zn/88btG46v76178eHyyzyskgJTzS2xLqG+VgRedi5Jvf/GZcIgw0cOmBd0oNBmixEtIy6tI3W0gCYKehM1o1iD5KK9qMQXnQ45kyYm45geZF/UvmgDzqEzh3cv7nwoXtJze9eHQ8E2X0oTYCtERP+RgivAIWLoyGMvKRteqLnqD2KX3SCtRni4vxQkv3AoDnFOojHWtf8KXAV9YizPqWx9u1e+jMNVq7+R697MVeBY+IR+UjgrwbJV4233XA9enhn9pzR+lCCZIMhEEiDL4G8nQyuKFEqiASNK9LOI/xrooV/mMf+1j3B9koH/VoR4zAJbx0QoYSUkSgVZ1tIt9mcpmwJYH3mKIrWfQ2HuphkBgPBiWlleKmQVCaWLTTxZCxcAnDWY88vmdFeQW1I2j8gGdudbnd/PKXv2xf/OIX7Utf+lL3J4ikeQ+pjzeqQfTkLXkmzblZP1vDw2FU9AekB0BjI09p1QPkEaCp73LZfeGBkR/tthbesyulG2XBLW99a5utXNceZ8d2vvZx4+zMN7nPzHva7JGFS611k2+TfABjffKHs/d2vpkEBoVnJIRxliunzMpQK4NKB5emBwvQRGCijeC41ufCAMXjczr+tQEMVHUJmgApMO22FehP/ArV8voL5oH50FhER2PNgjzqsIDxVQ5ehWcuddjmp22q8STZ0a/SAt4OI6OMXQuvFSRbaKkdaT0DDAavz605v1/lIoavb0gT886UOcxCdAjiR/ksCryr1p0CNPC8IOVDcTWIP8pJE+CNZ87kfPUDVC+LWnSrIQyzo9Bg69x4lrryXjh7ts2ec58t22TG2sLvwfk9+m2PrrYr59xuucayNRfKtufECTam2V26l+FVN7knXevpB9eW7P4VbbYm8t2t+wrCedWH7gxjpuRWV5KthQZOLAVglWT7CvSaQBOmGF6YEKAJJZbwaZPGKlMbQfWVFuCF55S/lKbyxY+gsoEE8S6oD9EmnfLPM+/ifvWrX4XxsOLjKXl9gueknWinSJ9Vnq2LvFkI8U6c6fisjcBrFKD+6ZOvY1hEoSGeiYWU/zRf6TRfaY2TxYYLJG5Q6Qt+PvjBD8b4qJPyrSD0lmYBxDD5nJEtMh8aIEedXcUPfRAAeeiDeKOeylIUTv9WS0une0c+u1u1qWi33D3P7n3gUbt+zjy7c8FiW7BwrV156zy7ee48W9/hW5Vip82YPM5mzTw4fnkyvOCEvf9N7nFvnb/Izv37pTZn7r3W3lm2yeMn2MgmziI+kEp/AbbC6SAHE6JLTOASgS8/GDwKyPegCITXEldccUX8ezFMFgd3rtMxYgTL2ZN6rLD87AuQh9fVFogAXdpzUcJtKn3gad70pjfFGUTCVwC83EYJAds9eNLNn5CmBwopGrwReMnP102kea/IrTSvI9he8r7ynHPOicsV2vBV0BlnnBHfloL+8EGdtB6Kpzzo6SsaDIRXHrwO4osftpV8QserIb4z5izJu1RkRtA4UmSfqQMtGR30+YCAm13GyBc3v/zlLyMfr4lR8m8UsWBgTGy1gehm6fcGeGSuMXDky66M3Rk/GaN/nAIyZsHj4goZwy/bcL1aAcTSE6Fw2hlntGDXnC83bmy0hx5fYis2dti6XJMta+u0xes22mo32LZSozU2NNlBU3ayk47Y3/aZuION8k2uFdstxwcG+YJdd8dce9BXvpI/NzY12Iy9OWP4Qds7rJxRNYEKgwtNqCYVwbOqoRi8QuBwLqPgVhZhcsGBMTKp5KM0bHH0T0tUM0wMjvr0AZgYtjIYJh8vk887MJQyFb7S8MBEwScfQAymYUJTMTTghfeA9IfBoDwoDWPl3M0NJ+NnTCwSvAJhC6n3vlsCtYMHFJczL/2y4OE5kRX98ikeiyZzw1xx7mcLK94VaoGFhnLe2/ItNMD4oY+BsAAxbhZheGJbzVc4BO4X5DFBb/30BnhlnpEXOwF0jO9ltQARWBjhgzES9CF8imz/hZaW01sKZXfLzl+jy3PE8BHuPYY54w02zI2qOV+yXUaPsqk7jbGZM6bZsYdOtxlunMNznVbw4Ky5YfIJX8FcVW29e47RI4bb/ntNtz2njPf2Ttdr+ZoQHVYAE1smiN6gwRErrUsMXTwgSCaJ9298nsfhXecOlJOX7Ly7YhtGXjXD1GuCFCgcRomB6dM06AmpksswwVB4zCyghZcnsDMgRiGVZivGTTVenjOcvnxJ5bglgAbKz20qC5AWKpQY+akMD4KnZEFAadVnb/2n/EGLsTDPjAeviLyZJ9IYJFtOPorgUo15pJzFFR5Ea0ugvumDXQa00R28P7/SQRdY6HldxNh4RveQM6Dfav3nSuWN5VzJlazsDPoWk1+TrO4o2+q2dmtzN9re7ts895SjCE1mI0eYDbOiNZTb43eYTtGKJR9kYZit9WPd8jV8M5i3sV6R+iO6DTPdR8PElgmiN+ARELhWQQmfwGqGkVGHyWMV19mHbRZeg4lFiORrwtiGcJMLMCL+7R7qoFyUA/ojzdaMFZH+9NMpeJACSfi8OOc3nrRh5eRTNSmtaGYnqr9Qe6A0/OBJ8By6OeQZ3ggoEv1rIWEMeBT4zy5AAwFeEiPX1pY+8SbwQB/wR/8YEHOC/HmWbFOZpUjHqPmlD44T/KuE0MZzkQctxsWc4b0ZD31IV0RroONUO/GpZ7w1cmOs9IEckQN9UY8Y3YKfVE+zyHWW28p5XmuUc9bhhsjPvdh3xqevHuI9p7fnvwVzu7V1na3W3OgWx39F5F6yVHSl5A6JH0p7x7RDlAWPm7x+jj1yjNnjAKUVYWtQQwHRZtI0cJ6lLAglXS0lJMCz8tny6d8AlWFidJoItdUz0CSLhpSANJBhAgwTwx8swwTQINAnvGn8pFO6KDC8il/4pJz6yA35DBTiP+UBQFdyYDGUgWTrALXlOeVXUDkhlbX4T+eWNHUYq97Lki8oLR76C9HWGJRHX5IzMaAOz5TDB4uF+FJdylIePOlKimG61RUafHvB+dD74cOskS6T5s6iNeXcQ/p5kq3rDo3DvLbXybnfdE9bKDRZQ6EhzpH8r1/DvQ0fJAxza87xj0jHb8FgHAErVFBN6FsLBipBkWaCGDCBiWPLCBAK9SQUYgmGdDXeqEeQwIHaQi+dAJVRNxW4ynrro1p+f6H29Km+hCx/KCp8Aym1+t4SowSiQYA2Mf0RxJPOd0D9Uw8e+gvR13zrmQBtnulPBqrtudqm6XR+BgKNTzREh5i8tFw8wofqk0esBStFPuc6xlTAJmIhjosajysP3sAfOgvuUT3BebTRt66cSZvo1OtQF7JxyeMnzUL8r5tdRkmFqKEwtJBQNPgUUoa0DkjT2TYIDQFKyKQ1qVKKNIhOarxA5aInKD/NA9n2/YX6B6Sz4wEafwrGVy1/S5HSSeWd8qO06sIDUL2URgrRAmm9bCxk+wFql63bX6TtlK5Gq1rfgGflVVsEvZVbrSsF50AcPXHYlRCNfRDuJ/GU8TOujBKBzd3CCAKmM4WeTG0PkOAkNAyKsxFX8VwGcavLC3Ou5KmHISnGyNSeCyF+RMvWlW91aasvbNRGITVOnut48SJXLnW4FnnKPWHFgBS60JVEZSIZ/527o+t72mjmiOjZ9hrlXVW2K8houD3lF/zymDofyHD4Vbv+Ux0goyTGmLnG55tcLj14pp4uBkjzIh8augUGdaOsI8/HBfGhOTc7ESqWhEHxf2CyoQqj5K9IeJ3Y6/r5yYP+9IDqeoh22yG01cGAuA7Hc2JIMihtUYAMEYNNPSZ1SHPhRDvAxQdl0Ku1fZSB1vHiRa7DtQAVCzWTPnTpSaoekUVGjzL+rqQq2f63XGgXtlePCTAQXn7zqRWGxTPGhHHJQ/IOkndwAAOTYcooefnNe0u2wcoTME7e7/HFEa9o0rKssdbx4kKu5NrQ7dWI46HLT/Zwd1HoUUUhN1ubfCpwz+EmzlPaEqPfHtUMIwN8nIDRYCwEpYm5ZdM5NK2jtsQYssAz5UDeEiPH4FWm8jpevMi5Mm22oS7b22xWqXkJm7dwFWTrYJw9sb2pWSqSWkYiI0zrCmmbbLna9KdtHS9e9DTMOgJ9iaQ3wwN9GabQV9s6XrzIur86Bhm1DK2+HtbRG+oeswokkoF6L9pVa1Mrv446qsPs/wG0Cberfob23gAAAABJRU5ErkJggg==;" vertex="1" parent="1">
          <mxGeometry x="900" y="60" width="230" height="50" as="geometry" />
        </mxCell>
        <mxCell id="DnzYC_w3bC5qt8FacpLg-41" style="edgeStyle=none;rounded=0;orthogonalLoop=1;jettySize=auto;html=1;entryX=0.5;entryY=0;entryDx=0;entryDy=0;strokeColor=default;align=center;verticalAlign=middle;fontFamily=Helvetica;fontSize=22;fontColor=default;labelBackgroundColor=default;endArrow=classic;" edge="1" parent="1" source="DnzYC_w3bC5qt8FacpLg-43" target="DnzYC_w3bC5qt8FacpLg-44">
          <mxGeometry relative="1" as="geometry" />
        </mxCell>
        <mxCell id="DnzYC_w3bC5qt8FacpLg-42" style="edgeStyle=none;rounded=0;orthogonalLoop=1;jettySize=auto;html=1;entryX=0.5;entryY=0;entryDx=0;entryDy=0;strokeColor=default;align=center;verticalAlign=middle;fontFamily=Helvetica;fontSize=22;fontColor=default;labelBackgroundColor=default;endArrow=classic;" edge="1" parent="1" source="DnzYC_w3bC5qt8FacpLg-43" target="DnzYC_w3bC5qt8FacpLg-45">
          <mxGeometry relative="1" as="geometry" />
        </mxCell>
        <mxCell id="DnzYC_w3bC5qt8FacpLg-43" value="[ ]" style="ellipse;whiteSpace=wrap;html=1;aspect=fixed;fontSize=22;" vertex="1" parent="1">
          <mxGeometry x="1000" y="192" width="50" height="50" as="geometry" />
        </mxCell>
        <mxCell id="DnzYC_w3bC5qt8FacpLg-44" value="a" style="ellipse;whiteSpace=wrap;html=1;aspect=fixed;fontSize=22;" vertex="1" parent="1">
          <mxGeometry x="950" y="272" width="50" height="50" as="geometry" />
        </mxCell>
        <mxCell id="DnzYC_w3bC5qt8FacpLg-45" value="i" style="ellipse;whiteSpace=wrap;html=1;aspect=fixed;fontSize=22;" vertex="1" parent="1">
          <mxGeometry x="1050" y="272" width="50" height="50" as="geometry" />
        </mxCell>
        <mxCell id="DnzYC_w3bC5qt8FacpLg-54" style="edgeStyle=none;rounded=0;orthogonalLoop=1;jettySize=auto;html=1;entryX=0.5;entryY=0;entryDx=0;entryDy=0;strokeColor=default;align=center;verticalAlign=middle;fontFamily=Helvetica;fontSize=22;fontColor=default;labelBackgroundColor=default;endArrow=classic;" edge="1" parent="1" source="DnzYC_w3bC5qt8FacpLg-46" target="DnzYC_w3bC5qt8FacpLg-43">
          <mxGeometry relative="1" as="geometry" />
        </mxCell>
        <mxCell id="DnzYC_w3bC5qt8FacpLg-55" style="edgeStyle=none;rounded=0;orthogonalLoop=1;jettySize=auto;html=1;entryX=0.5;entryY=0;entryDx=0;entryDy=0;strokeColor=default;align=center;verticalAlign=middle;fontFamily=Helvetica;fontSize=22;fontColor=default;labelBackgroundColor=default;endArrow=classic;" edge="1" parent="1" source="DnzYC_w3bC5qt8FacpLg-46" target="DnzYC_w3bC5qt8FacpLg-47">
          <mxGeometry relative="1" as="geometry" />
        </mxCell>
        <mxCell id="DnzYC_w3bC5qt8FacpLg-46" value="=" style="ellipse;whiteSpace=wrap;html=1;aspect=fixed;fontSize=22;" vertex="1" parent="1">
          <mxGeometry x="1120" y="130" width="50" height="50" as="geometry" />
        </mxCell>
        <mxCell id="DnzYC_w3bC5qt8FacpLg-56" style="edgeStyle=none;rounded=0;orthogonalLoop=1;jettySize=auto;html=1;entryX=0.5;entryY=0;entryDx=0;entryDy=0;strokeColor=default;align=center;verticalAlign=middle;fontFamily=Helvetica;fontSize=22;fontColor=default;labelBackgroundColor=default;endArrow=classic;" edge="1" parent="1" source="DnzYC_w3bC5qt8FacpLg-47" target="DnzYC_w3bC5qt8FacpLg-48">
          <mxGeometry relative="1" as="geometry" />
        </mxCell>
        <mxCell id="DnzYC_w3bC5qt8FacpLg-57" style="edgeStyle=none;rounded=0;orthogonalLoop=1;jettySize=auto;html=1;entryX=0.5;entryY=0;entryDx=0;entryDy=0;strokeColor=default;align=center;verticalAlign=middle;fontFamily=Helvetica;fontSize=22;fontColor=default;labelBackgroundColor=default;endArrow=classic;" edge="1" parent="1" source="DnzYC_w3bC5qt8FacpLg-47" target="DnzYC_w3bC5qt8FacpLg-49">
          <mxGeometry relative="1" as="geometry" />
        </mxCell>
        <mxCell id="DnzYC_w3bC5qt8FacpLg-47" value="-" style="ellipse;whiteSpace=wrap;html=1;aspect=fixed;fontSize=22;" vertex="1" parent="1">
          <mxGeometry x="1250" y="180" width="50" height="50" as="geometry" />
        </mxCell>
        <mxCell id="DnzYC_w3bC5qt8FacpLg-58" style="edgeStyle=none;rounded=0;orthogonalLoop=1;jettySize=auto;html=1;entryX=0.5;entryY=0;entryDx=0;entryDy=0;strokeColor=default;align=center;verticalAlign=middle;fontFamily=Helvetica;fontSize=22;fontColor=default;labelBackgroundColor=default;endArrow=classic;" edge="1" parent="1" source="DnzYC_w3bC5qt8FacpLg-48" target="DnzYC_w3bC5qt8FacpLg-50">
          <mxGeometry relative="1" as="geometry" />
        </mxCell>
        <mxCell id="DnzYC_w3bC5qt8FacpLg-48" value="*" style="ellipse;whiteSpace=wrap;html=1;aspect=fixed;fontSize=22;" vertex="1" parent="1">
          <mxGeometry x="1170" y="242" width="50" height="50" as="geometry" />
        </mxCell>
        <mxCell id="DnzYC_w3bC5qt8FacpLg-60" style="edgeStyle=none;rounded=0;orthogonalLoop=1;jettySize=auto;html=1;entryX=0.5;entryY=0;entryDx=0;entryDy=0;strokeColor=default;align=center;verticalAlign=middle;fontFamily=Helvetica;fontSize=22;fontColor=default;labelBackgroundColor=default;endArrow=classic;" edge="1" parent="1" source="DnzYC_w3bC5qt8FacpLg-49" target="DnzYC_w3bC5qt8FacpLg-52">
          <mxGeometry relative="1" as="geometry" />
        </mxCell>
        <mxCell id="DnzYC_w3bC5qt8FacpLg-61" style="edgeStyle=none;rounded=0;orthogonalLoop=1;jettySize=auto;html=1;entryX=0.5;entryY=0;entryDx=0;entryDy=0;strokeColor=default;align=center;verticalAlign=middle;fontFamily=Helvetica;fontSize=22;fontColor=default;labelBackgroundColor=default;endArrow=classic;" edge="1" parent="1" source="DnzYC_w3bC5qt8FacpLg-49" target="DnzYC_w3bC5qt8FacpLg-53">
          <mxGeometry relative="1" as="geometry" />
        </mxCell>
        <mxCell id="DnzYC_w3bC5qt8FacpLg-49" value="*" style="ellipse;whiteSpace=wrap;html=1;aspect=fixed;fontSize=22;" vertex="1" parent="1">
          <mxGeometry x="1330" y="242" width="50" height="50" as="geometry" />
        </mxCell>
        <mxCell id="DnzYC_w3bC5qt8FacpLg-50" value="b" style="ellipse;whiteSpace=wrap;html=1;aspect=fixed;fontSize=22;" vertex="1" parent="1">
          <mxGeometry x="1120" y="332" width="50" height="50" as="geometry" />
        </mxCell>
        <mxCell id="DnzYC_w3bC5qt8FacpLg-51" value="c" style="ellipse;whiteSpace=wrap;html=1;aspect=fixed;fontSize=22;" vertex="1" parent="1">
          <mxGeometry x="1220" y="332" width="50" height="50" as="geometry" />
        </mxCell>
        <mxCell id="DnzYC_w3bC5qt8FacpLg-52" value="b" style="ellipse;whiteSpace=wrap;html=1;aspect=fixed;fontSize=22;" vertex="1" parent="1">
          <mxGeometry x="1290" y="332" width="50" height="50" as="geometry" />
        </mxCell>
        <mxCell id="DnzYC_w3bC5qt8FacpLg-53" value="d" style="ellipse;whiteSpace=wrap;html=1;aspect=fixed;fontSize=22;" vertex="1" parent="1">
          <mxGeometry x="1380" y="332" width="50" height="50" as="geometry" />
        </mxCell>
        <mxCell id="DnzYC_w3bC5qt8FacpLg-59" style="edgeStyle=none;rounded=0;orthogonalLoop=1;jettySize=auto;html=1;entryX=0.447;entryY=-0.073;entryDx=0;entryDy=0;entryPerimeter=0;strokeColor=default;align=center;verticalAlign=middle;fontFamily=Helvetica;fontSize=22;fontColor=default;labelBackgroundColor=default;endArrow=classic;" edge="1" parent="1" source="DnzYC_w3bC5qt8FacpLg-48" target="DnzYC_w3bC5qt8FacpLg-51">
          <mxGeometry relative="1" as="geometry" />
        </mxCell>
        <mxCell id="DnzYC_w3bC5qt8FacpLg-62" value="t1 = b*c&lt;div&gt;t2 = b*d&lt;/div&gt;&lt;div&gt;t3= t1-t2&lt;/div&gt;&lt;div&gt;t4 = a[i]&lt;/div&gt;&lt;div&gt;t4 = t3&lt;/div&gt;" style="rounded=0;whiteSpace=wrap;html=1;strokeColor=default;align=center;verticalAlign=middle;fontFamily=Helvetica;fontSize=22;fontColor=default;labelBackgroundColor=default;fillColor=default;" vertex="1" parent="1">
          <mxGeometry x="1460" y="72" width="190" height="310" as="geometry" />
        </mxCell>
        <mxCell id="DnzYC_w3bC5qt8FacpLg-63" value="" style="shape=image;verticalLabelPosition=bottom;labelBackgroundColor=default;verticalAlign=top;aspect=fixed;imageAspect=0;image=data:image/png,iVBORw0KGgoAAAANSUhEUgAAAOcAAAArCAYAAACD3p/vAAAAAXNSR0IArs4c6QAAAARnQU1BAACxjwv8YQUAAAAJcEhZcwAADsMAAA7DAcdvqGQAAB3rSURBVHhe7Z0HsN1F9cfPLe+95KX3TksgYCghSm+OJCAqCOiIoH9EpdkdnbHNCEMZx2GwN5BiQR3nTxViKAIBSSCSEEKAJJCQQklCSCEh7ZV77/989r7vZfl578vrecn/fXHz29+Ws2fPnrN7dn97n6mCw3rQLcBQpFKpprfyaEmZ7oJKvErl9oR+7E5ee4yzG6HSUKAYyuMpRdkTlBvE/Yr5B8k+lOsn2B19jfkGXc1DuunZg26MWGEVyr13d7SEz7g/u7NfMQ+7i4+elbMbIVaIGMzYcZ5m8ORMvjtWl+YQ8xpDfWkuL0ZX9qtc+5X6IXQWfz3G2Y2goUg+NfixEiTzQGcpSXsBr+IXpNOVHba47+X63dmI+WwpOou/VCGfd26ceMoF6P+lmjxdWCxY3v/NW6ox7Qx4OokZs8ZUo0eylvKqGfN4Ol/sVKrK63sBqgEnmw90i8xDuevE3DmIB689gxIrXz7vMva40jZt2mRvvPGGDRgwwEaOHBmUOZPJlPLr6+tD2ssvv2xbtmyx973vfaFse3mL+ZABiabaJuRyucAP5ZszNIHy1KM89Xbu3Gm9evUq1Y95peyaNWts5cqVNmTIEDvwwANDHdUXD0A8NQe1kZRNpbqkw0M2my21t3HjRnvrrbfC+7hx46y2tvY9/aZOUg6SUXuQ8gYLgUU3IjcxNyAnSD88Mecpef+3qlBl1uBpnl7IunFm8rajkLZeXqY63+DJ9ZZy5rykpb2AkyoCmsE4i4zzb/Oi3PshpZCyaGAbGxtt6dKl9pOf/CQ8pVRXXXWVffCDH7SGhgarqqoK5Rj05557zn784x/boYceal//+tetX79+oU57FCLmTXEpsN6lsEpvDpQV5s6da7/73e9C3+jHT3/6U5syZUqpn9Cnb8Qx3rPOOstGjx5t3/jGN+zwww+36urqEj3JgCC+KkH8Uk4GRBxUqkcdjGvFihV28803B96RP+WhcfDBB9t5551nxx57rPXu3btER/xRRu1WaqMlcG59IFIY4bsrXEDgH4PL2k5fHQvVnuBGSamcG+aGnWbPLV9r67fWWS7lgvNyOS9StPR34WJxKkXzbDubew9QDIIGkmddXZ39+9//DsaG8qIYUlgFFFHK+9prr9kf//hHq6mpsVNPPTUoCHSkrKLdWqBI1Fcc8E67AL7idJUtB/Ji5cS4tCKRFhsW/BIwWt7pF5PSjh07bPr06bZ69er3lIWW5CP6MUhXoBxIyrMSyHvnnXfsT3/6k33ve9+zZ555JkwW8AZo74UXXghj9etf/9peffXVYLjwRRvkQ6McX61FGjYZSp4uSo/4GyGYIXkuyFTGjbTR3dl6q0unbN12s+mz5tuM2fNs9aZtVpcnH8ayzlgg1BSKQsBAfXMb4nsD4kFWaCk0aHqipLhxDz30kK1atSrQmjBhQlhVjjrqKBs0aFAYeMoTcGP/+te/2ksvvWRHH320TZw4sZRHXdFtC9QX0aJdFBMXG96YRJQHWtMWhglEV+AdpZbxAOL0nZXp2Weftfvvvz+48jIAytF2ufZFAxCHf3jHiOB/V6AO/b377rttw4YNwfBGjRoV3NmxY8eGiRAeSJ85c2YYN9qAF/URVOKvNQjTig8J5uMRAp0rrpCIkAKNOV/SKZdJ29s+iT6+8GWb89IKW7cjZzusOqSzGc0hdAo2hfeo7Hte9mxI8HFoKSgr5dJz0aJF9vzzz4f4pEmTgpv6ne98x771rW8FQ5VCMvgzZswIqywu30knnWT9+/cP+TJgtdEWUI8gvqDLvvY3v/lNCOy74tWzOYiO4nqSJi8gTovL0C7h5JNPtoEDB9qDDz5oTzzxxH/R411pgvIEXFN4/9WvfhWMdFf8k4cRMwnS9tlnn23f/e53g3vNeFx88cXBWOF/27Zt9vDDD4fxA+X4aw/cqnxA/OHrXtFSOfhBGXzVo4lcrtF6pat88LO+z6y2x19YZg89v8g2NPis5K7sDn8G+MMdlVCHlKJ5F+PFfzwnPPd8YAgMspSjXKBMuUBeDGZgHeyQ/4UvfMGOPPJIGz58eDgMYqZWneXLl9vjjz8eZmqMmMMSlBigEGq3OeVrDtSnrmjxxMX7z3/+Y7Nnz7bt27eX7UMlwBs0kJWMgoBiy71VOwLvBMrQv4MOOijwwB513bp1gSZ5zfVT7RDefvtte/LJJ0PATVa7lUDb0KZtjPFLX/pS2PMyJngzH//4x+2GG24oTYq43BgodUSbeEfAndSiefJfEf4s8MY+sdGqM/7uDe5sTNnilVts9sKltmZ7vTWks+bcWNb9f4BhZnFj8+8u7Qxh0VxFe88GQt+6dautX78+rCIKKA3hzTffLIU4Pw4oOAMopcQ4cZ8Y6MGDBwf3iTxAPqsMio1iYSCcYvbp0yccEnHiKUWjHIDOrpRD9EEcl2IpjTj0aB/F48neS/k84/oxlEeAN/aRoi2ey8UJGB+TEnWYhOgvk9c999wTJibolesjNJKgLDwT1H65cgL9ZWLECI855pggY/ggHd6gh2FyICQ6rM7k8R7Lr70oLpZ5BsU753IK200PKU9IFXBnGw1PfdV697HnLrXXN9VZLltDL5wJN0QPEElT1it7qtd3ATSZdzgKahqAroQGAWHFgxILr1Ke8pWGUgIMCQP57W9/az/72c9CYEbXs7lAmV/84hdhFUL5NJgyTtC3b9+S4klRKYNiYJScGuJy7bPPPkFpKRdDfFMPkB/3KQ6qm0xXu0CGyROQD/QOSKOM2lJ7oiNakqGg9OQTMBEAjILJis9EyGXevHlBDgAexHMcAE/1D1kD5dOOygGlK1APj+VDH/pQaUJRWzHY6zNe0HvllVfCnpgyvKuNuE9tAZbjBumEPOaOWvgvbDZzzMQZd13T9sb2gj08b4G99OpaG9h3oA3t3cey3njGg8/TEHEEi/bgtPxNbNGl0K04sQsgJQGsWOzT2MDjFr7++uvvURbKxoHVjfKPPPJIKC/hk8dJ6dNPPx2MFFfpqaeeKj3jUCmNgwkGe+3ateF91qxZYdWFVwyPcqTh6qJY6sOLL74Y9kyknX766SUFJp+9z7/+9S977LHHwt6M1R1eY+WgHAEXccGCBaEc7hizvoxLbaku78ThV2k8JTveydNko/b0bCuoT9sY5JgxY8IejzQ8koULFwY50S588ATijzRCkgfKqazoUwcQjwOyZbUGosNT9aBDGVZVoHGCHoF8lW0PArfp4NxiXhD2OAxxQpuqtm1WZffPnmMLV6y0dK8aO/mYo21EbW/LIgw3O9bGUJt/imS8t94Rf5Rem55dBQ1aLByUl5Xrl7/8ZTgg4EO/BhRQHmUAt912m/385z8PZf/yl78ENxaQj+t5wAEHhD1JMrA/IpRLV3zYsGGhXQyNzyEcVGCogHb4rgafGA5GBl88MU6MEPeMU9qYd5633357aXXG6KmnPCkM8sDob7zxxvA99c9//nNokzwFwDOmj/LRd70TR8a4mEAuo+TOs62gDfhUQN77779/oEt7nFIzwdAefPDUOFOXcuJPacQ1uaq8AvnqVzIOJBPqCaLBVoMnPPJ5B4NVedLbC6fkFt/ky2JorHw5f2/wnI3ev5nzF9uzi5f5ypqyKZPG21GH1Fp/q3fj9I65EWKa1C6EzsBYkTm2n6QUu1ik21WQkAkIcsSIEfaxj30s7BVYRVn5MIzNmzeHfMoxgLiYHNtzIkoeSsmRPgcCCJ0B4PQOg/rDH/5gN910UwgYVBxuueWWEPSucr///e/tjDPOCMrM7E8btIv7BIhzgIHy0TaAP/ZbGCcDvt9++4V+aOUkn1l+6tSpwXhZhe+4446gOMqHd554BPQd15C2OY1E8UnHm+DAiUmD1ZQnhx1MYlI4PjGw8uNJUB5ZUody0McogBS7taB/CqKBrLgBpbGEB27sxGWQJen0C954wh+8wiPlCMThlb7hAREoyztjH8sqCerTpvKREXKjzxwWAcaPMqov/tqKcEOoaDg8fPZzuo2ZKtvsSXOXrbEZs+bZ1k1bbOJ++9uZpx5vAweY3XDbdFu0rt6G96+1C087zo7Yd4DVuMH63BpuCPmSW7JT5i/MNxh+SGwfwy2BBBQLhwHkmxSrIqsFBw5s6s8888ww8zEr83H51ltvDUfjDMJpp51mF154YfhsIXoMAE/yRb/SIMBHDN41wFw2ePTRR4OR8MSY4EOHENz8Oe6444Lh4Y5fffXVgQcOgvg4Hh8GARTtmmuuCXRp4ytf+Yqde+65JYOhLgp13XXXhdWHuj/84Q/D3orbRuyLUVIgHllttCpqNVLfSVO5Qw45JHz+4QkoQz55gHLz588P3gjGQDoT3GGHHfZfsqMsEA1AHU5NGSOu9H31q18Nn1lEn4kL/uk7aQTxKnpMZuiA5EEZ8miD/fvXvva1wD/5pIsv6FBW75Rn8uQkd9myZWEckOMJJ5wQyop+sl9tgfeOldI7wurp/2PvyQHQorc22syFi+31zfU2YugYm3rcsTbODTPrfa3KFE0OpzbnFZjjvQseiitpCV6WFAi7WhbTuggaOIREnNXplFNOCSsfAmXWY5Vkb4lh4Fqy4uD2MTjvf//77VOf+lRYdXkXPbku8cDr2RwoH9dhxcLwzz///GCU5A0dOtQuuOCC8C0N5cMwKc8+lIEnzqpJWUH0cJdPPPHEUp1777039EkKThoGIgM84ogjwkSg+jwpKx6JIzMpp/KIs6pLHpQl6B3wHvPYVkCDoD4BvANWP3kWakc88Iz7wVM86wpgbIAE8khTHdEDKsM7gbL/+Mc/wkQHJk+eHFZ28mSYSRptRaoxnys0pHxDnytYTarGdriMV202u+OJ+bZg+Sqr6dfXzpt6kk0e18vcNm2jt3fj/860RWvescF9e9sFHz7BDh1ba709r9bzqjwwTHn/J+xhg1F6B8M88O6giXG9dyRiocT0SWf/xurJDRAUj5n4M5/5TFBcjIDZlT0ilwDGjx9fUjoNEODJe5L3uF2QbFv1YuDGssqx8jHIP/rRj0rGKiW75JJLSiviZz/7Wfv85z9fcmuB2mVFZHVavHhxyP/yl78cPgkQZwLiQzp53MO94oorwsqMDFi9lyxZEtxn2ovbxk3kRhJxvsFySyY2WNpmUuGyBG5ybKQCZVq6cgqSFU/G5BOf+ERYsUj79Kc/HSY2LqDDC+nwjyzJJ8AbwIj+9re/hfhFF10UTn/VN5WDb+7LMvFhYOofoH3ipFGeG0tc3WPi4xT50ksvDVsVZEy+6ijeHrhxNhZy7tYyvIUGsy2prN33xBJ7cO4S2+b8jR0/1g7fb5jVNtZZzU5f0rN9bPaiZbZ+2w7rU202ZcJYGzuwxiaOHGxHjB5mfPV0kVpjuBholilgmE1MexDPdAB0RCdaCrWJouIGcfNEQkUBcOEYqGuvvTYMFnmxoBkgTgsJ7FE0UwqiL8R9I4/wgQ98IOxhhXLGyZW9WMlZ7XHFaY+yKCpxtad2NPGwarJX5AYRLiAKyR1VlAq6GOX3v//9MAmIL5RUNEWXJxMWhkwc42KlEJAHgCY8qB5I9r21xhmD+kyg7COJM+Fcfvnl4VMGKxm8QxP+xYcCn59+8IMfhPTrr78+uLCMK+XJVx9UV0YoOvGKyycv7tOyDUFXOI9gAkS+qtORKC5sbpVE8pmCPf3cizZnwVzLp7zD2Spb+dpau/eRWTZ99rN2z1MLbcYzL9vyzY1W753bsrPOyy6y+2fOtkXLVoaL78E9Lrjb07RacmhUbMOVPER2P3DXcB+5u8kgMQAMGCvK5z73uXAay2AxIAwQTwLlmDmZiTECDoXiwCFTHJJ5XKbmMwaArgYzOahSDMA+SysCvDJbx/UUpzwryfHHHx+8AfbUrCZMJByW/P3vfw99YpWT+yvFBlJO2pCia3JiIgK8Ux4FJlCOOpIRiHnqKEAPt10yY4WHJ97hQcamMVI50uCTiZdAPkZFHnGC6lKPoHqigWGKBqfgyJN8voXySYvzCMp1BtKcBVXnfSBcthjPti2bbGT/Wps4bJAdNKiPTfQwafRQ23dwPztg5BAb0a+XDe1TY2nvSG262kYPGm77jxrnLm5/yzLZu2EWj4GaDBG+aYTffO5m49Sg8GQvifsqBSQgcE5D9fFZg69AGgZMOb69lQsMFqFSOq5TDLUNoA802LxzKINyYCxAyqU6gvjFFWfSQXlZSbn0wEqKgdLXfffdN6we0OE9bks0RZ9Au/QdxY1loXrloLrtRUxD3xQ1DpKVQFnyZGy8U4Z+0gfeySMN3hXUBnXUV8rwBMieMhwS4mnp9HratGnhOp/GpTOQTnMCxI+p67l+l7ZjJh9m55/1YTtv2ol24bST7KJpJ9j/+PMCfyeNPeYol1O1Mz2oV287ZfIUO3fqVDt8wngLu6CmiwjsODHQEPO0cMGhcyaYFgEBEyR09nC4PKxMSsO15ICIPRhpGlQNIAPNIcpll10W3MVyAbeTJ6d/yTwCx+6xYoi20oDS4IGZWwczpGMkUjBBykQaq+dHP/rRsEJSlgv1fOMlzmrKQRDX0ygLTZ7Q5RnTBHGeZEFb4g+oDmlKL0erLYhp6+4xwFDhR+0okE+fJB9kIn5550maeFWaygK9x/U4PLzvvvuCzkD/Ix/5SJBxcqLtaDhHLoCMrx7uwvKtcuCgvjZmWB+bMKbKJozM2KSR1XbwsBqbNMpX0FE1duAIswHV2y3jBsevOPcf0tsOHpmyMQPcNN09zrvQGn1F5fSWA6GUr6T8aJv19N0h7TpoIBQHfCfjmyPCRvi4gRgABwv//Oc/w3fO+KO1AgrBjRUMFPeR4/NygbxkvtJYucQHoH1BcSkFQBG1NwSshsn+UFaBNNrgd54oHDO93GKMklNoVn+gdmTYMV3ekyCdsioPVB/Z8BREqyMALQ5goI9xsNdk0iJdQTzERsuYxfyxclIfkKY8ATqkAZWDxl133RVuVDGRIz8O6HCzAXU6C86h/wt9GPUXd1h9BfRV1JN6Od+ZXL31dvMiZHPuJlAr1WDc7stZg2UKdcXPK56WD4aYtbqma38N7i7nPRQKCIDw3wPeWdCgCYpjmNwQwk1B8NyR5HCIE0D2c+wtuEDA9TwMVAOo+hponq0N0NLgC6SDmFeVURpGRZu8s4IA5fGkPE8UCnqsknwGwv0mjTwCqzYHXaqHsiov5k1P5IO3wORAIA6S5YHoEECcFyNOr1QGiBY8MA5MShgk/WO/LHlItsm2ifOkHAdsjC2yIE35cXmCxoI2idMu1zeZyCmLrnBKzOTGtgF6lCUo3pFwbpxBN7SUu6Lcl3WvPBind9ezfWmnVN7fcqysfMs0q/OVdmc2ZfVulbmMu1kpnNZ6p+MG6Qa4ucHsldVbbemqDbZ1mwuh0Wc0p4i3mxRKZ0D01ZYCp20cjCBwhM/xPwdA7AnPOeec4K7gqiB4TuW444qxouyUZwAAg6A2WgP6S9243+XoxDwTOCFVHJcbfmKIH+jyxOg4dWaFl0Hh5vLtlPdYEUEcp3785HvsN7/5zfAZBmMnnfaSighNBUE0YpAmPoVy8pScCFr5kT+GSV/Es+qpLCCNQBm8CC4MfPvb3w7nCaQneY+husiYE2YO8ZAZRs6pLJMj2yEO9sgn8M6Tz06srqLRXhRtkAC/HlgFMc5wqT3vA53CXc2GU9eM51E06/GqBlZM/j6CG6mbHn8/CHKQWbBohd3+wGN25yNP2qPzX7RtJV16d+AkyM6G2mHfwH1VNvWkobzsG/isgfCZWfm7NXxmwG3iqheGzJ+pKKeMbQVtM3AydCYCrQJSUsrE8uHIHrcbcIkAxREdgTh0BOhrn0bgthOrZkw3CbUtusRZtTndxbDZs0I3aRiVkGyL9ziN+mpT6UqjDcVxaXnSbwxTny7iSaUcqMOKz7aCz0qMK3ViHsqBfL6P8vmJgzTo0G9uUvFbTu4v433x5JMQ95T5+0jcQGOFF432otg76BDc6PiPxOJPxkhzAbmR8jPNvBsZZ2ZVjfXm64v1yvMzMWrg4vKX94pe8hur19ir69bbirc22vI3N7pxumvCvcD289sqSEAMKjMbvwfUh2w+HHPihsKhvAwaJ7h85Ge10ABxa4g7mkBGRB7PtoB6BBkSEwPta3aOFZ84SsHKLp64REB5+kS++FFZ4oBbNJzUko+CcreYvvIeQ+UB9YHKkCfjBqzI8Mh7kk45xHUpH8djiAe1z7vSKMvlCvpL+xin3HwQ8x+DdOqIFnSQkWSmMuXAPv2BBx4I8mPyhG+epGOsfG9lkiTOISIeGe/ca5ZsaLu9cG6dcdeHfMbdhqz72c4wril/CaGQdoGmXcBVrgD8hNMXx0J9zoZXu8IU6m1MVdr6+urJ/hSzLDS48F2+Y4cNtmGDa622d8pGjBpkvWo91+kjEgmrsyEBISw+4N95551hD8F+gU39F7/4xaCs8CKjY0/DDZgrr7wyGAQzLfcnMVDcFQ02ZdvaBymHaPCEJw5+dE1NtImjkPDBfoe6eABcNo8VGage6cRZ9ZnFqc/9WbmkCuVAWdFROdokHTmq/wCZKV4JMgZAeSYJPBT9Mkf14Zn3mKb4QO70l3e8B75BQ0MgPQnRYMITSIN/9akS4IW7utxnRu5MBnhZ8M44cXhIIA8+yEOPyCMOoK/Joz0o/VFp5jRsnSdkq1xY3nVvCbeVaMqq8x73zPVbt1lDLutGmbJBtfxUxgfW5eF27PtPs50elqzdZHknvc+QwdbHZVTjadAtiq1zQZcUEBQKzb6FdwZMxqBBYtAUpwyKwh1O3EINMIcK1GHwKCtlai2oR33aAbTN5CFetZ9SGbWDy4TrxCzNhXY+1agMikegLOCiBNcPUWxcQOLxzR6VTyJuT3R5gnJxAjw0B5Vj5dGPyukzkx91Y15iugTeWZH4KRyeD33hcxR7aclI8iwHaJAf01e8EqjD70app7EmEFe+2hO/gCefsdCteJLbVXvNoWicjKm3F4zQgcplwqrsDfsK2pBxJfA3XzCx0XAoRBUuHaTdtQ1+MP80enBmyGvI8DHFZ/4csy37Vq/YAbNJS0CXEKaUTAOYFBR5gDzFAXGC6lCfdw1GOVotRdwOiN/VlviO03BTOaTiJ1+4dexz+KxDOYLKsVryO1R+KA4dVk3ufyZXq3L8x7wQp5/U4ak0PZujI8R8xeWl9HoXXcXjenPmzAn7OvrPgR2/TsEAVFZ0yiFuF8TxShAv4kFPxUEcV74Ql49l1xY0SSj8G9zToovqCBbqGU6cKOlkcGeB32OzUoY9KQmhhD9D+WKS76A8yovXDJU8dCHiwUdJYwEKEmIsUIW4Dk/oJdPbAurGQXQJytdTcfjDuDgYwvVlb8NVMimIlJDAnpSLB6xOrPbc5ZUbGPezHOK8WH4xeE/yXAnkq80YkqHSFU/2hzvQbCvwYKjDz/viQx0CZSshLkdoC1RPvIE4nqQbt9XWNoWmEQj/hhdCeOWfpqD0Ujl/uig95rNcXKupPDyFVF8tyffhKSZ2IVorGASuUO69oxDTLUcfvpPpGBr7Ldw5Pg2w8rCi8PduAW4UbiOrJsf6uMnsn/lbQ/wuFNecfBncrhDLrlK8LdhVffUdQwRsRXDR2WLwSxyuW1IGg5RRtrRPrUVb+xrXaysNod092xUD7WWwLaDN1obuCBkphomBcqjDD8Q5kOAkmRWSQy7KYKCcKvODcYCCc8eWE+i4n7HRd0doLOgvf9CLPuEx8B2aSUarYWcaZWtDZ6HNPdwVY91dCZKIhZ0MQhxvK5K0K4UYrBIoowwO9444lyS0enJZglWGY34Um1Nnvk9STsa7O6C+JPvUHOCX1Z/v0rjmHIDhzgsxze6kZ63pY0vQKdNPLDAY7mimuxq7ow9qM25bRvbJT34yXArgbrD+vzzYh7LS6CM4vwHlRDQG9bu6H6ClbcIfgcmIn9hxEYSfZfErGkG6pefu6E8S8Rh1JDrl/58zJtkdhLc3IHn6zMrCr03YW3LBAOPklxMYKm4wl7N5Sv48u5NCVwI88imDvybIqslFEQ7D5MaSL/7lUeyt6DHOboRY8ZKI8/QpgndcWPL0bY2gPClvnN7dAc8EJiL6AN/qt+LJTzF7KzrFOHvQuWDINGyVlBMFJ09hT0ElddybjbASeoxzD8WujHNX+T3o/th7Hfa9HC1ZEcvl98zFew56jHMvRc+Kueejxzj/n6HHaPcUmP0fQ4ebrdAg8TkAAAAASUVORK5CYII=;" vertex="1" parent="1">
          <mxGeometry x="909" y="460" width="231" height="43" as="geometry" />
        </mxCell>
        <mxCell id="DnzYC_w3bC5qt8FacpLg-64" style="edgeStyle=none;rounded=0;orthogonalLoop=1;jettySize=auto;html=1;entryX=0.5;entryY=0;entryDx=0;entryDy=0;strokeColor=default;align=center;verticalAlign=middle;fontFamily=Helvetica;fontSize=22;fontColor=default;labelBackgroundColor=default;endArrow=classic;" edge="1" parent="1" source="DnzYC_w3bC5qt8FacpLg-65" target="DnzYC_w3bC5qt8FacpLg-66">
          <mxGeometry relative="1" as="geometry" />
        </mxCell>
        <mxCell id="DnzYC_w3bC5qt8FacpLg-65" value="=" style="ellipse;whiteSpace=wrap;html=1;aspect=fixed;fontSize=22;" vertex="1" parent="1">
          <mxGeometry x="1060" y="560" width="50" height="50" as="geometry" />
        </mxCell>
        <mxCell id="DnzYC_w3bC5qt8FacpLg-66" value="x" style="ellipse;whiteSpace=wrap;html=1;aspect=fixed;fontSize=22;" vertex="1" parent="1">
          <mxGeometry x="1010" y="650" width="50" height="50" as="geometry" />
        </mxCell>
        <mxCell id="DnzYC_w3bC5qt8FacpLg-71" style="edgeStyle=none;rounded=0;orthogonalLoop=1;jettySize=auto;html=1;entryX=0.5;entryY=0;entryDx=0;entryDy=0;strokeColor=default;align=center;verticalAlign=middle;fontFamily=Helvetica;fontSize=22;fontColor=default;labelBackgroundColor=default;endArrow=classic;" edge="1" parent="1" source="DnzYC_w3bC5qt8FacpLg-67" target="DnzYC_w3bC5qt8FacpLg-69">
          <mxGeometry relative="1" as="geometry" />
        </mxCell>
        <mxCell id="DnzYC_w3bC5qt8FacpLg-76" style="edgeStyle=none;rounded=0;orthogonalLoop=1;jettySize=auto;html=1;entryX=0.5;entryY=0;entryDx=0;entryDy=0;strokeColor=default;align=center;verticalAlign=middle;fontFamily=Helvetica;fontSize=22;fontColor=default;labelBackgroundColor=default;endArrow=classic;" edge="1" parent="1" source="DnzYC_w3bC5qt8FacpLg-67" target="DnzYC_w3bC5qt8FacpLg-70">
          <mxGeometry relative="1" as="geometry" />
        </mxCell>
        <mxCell id="DnzYC_w3bC5qt8FacpLg-67" value="+" style="ellipse;whiteSpace=wrap;html=1;aspect=fixed;fontSize=22;" vertex="1" parent="1">
          <mxGeometry x="1110" y="650" width="50" height="50" as="geometry" />
        </mxCell>
        <mxCell id="DnzYC_w3bC5qt8FacpLg-68" style="edgeStyle=none;rounded=0;orthogonalLoop=1;jettySize=auto;html=1;entryX=0.447;entryY=-0.073;entryDx=0;entryDy=0;entryPerimeter=0;strokeColor=default;align=center;verticalAlign=middle;fontFamily=Helvetica;fontSize=22;fontColor=default;labelBackgroundColor=default;endArrow=classic;" edge="1" parent="1" source="DnzYC_w3bC5qt8FacpLg-65" target="DnzYC_w3bC5qt8FacpLg-67">
          <mxGeometry relative="1" as="geometry" />
        </mxCell>
        <mxCell id="DnzYC_w3bC5qt8FacpLg-77" style="edgeStyle=none;rounded=0;orthogonalLoop=1;jettySize=auto;html=1;entryX=0.5;entryY=0;entryDx=0;entryDy=0;strokeColor=default;align=center;verticalAlign=middle;fontFamily=Helvetica;fontSize=22;fontColor=default;labelBackgroundColor=default;endArrow=classic;" edge="1" parent="1" source="DnzYC_w3bC5qt8FacpLg-69" target="DnzYC_w3bC5qt8FacpLg-72">
          <mxGeometry relative="1" as="geometry" />
        </mxCell>
        <mxCell id="DnzYC_w3bC5qt8FacpLg-78" style="edgeStyle=none;rounded=0;orthogonalLoop=1;jettySize=auto;html=1;entryX=0.5;entryY=0;entryDx=0;entryDy=0;strokeColor=default;align=center;verticalAlign=middle;fontFamily=Helvetica;fontSize=22;fontColor=default;labelBackgroundColor=default;endArrow=classic;" edge="1" parent="1" source="DnzYC_w3bC5qt8FacpLg-69" target="DnzYC_w3bC5qt8FacpLg-73">
          <mxGeometry relative="1" as="geometry" />
        </mxCell>
        <mxCell id="DnzYC_w3bC5qt8FacpLg-69" value="*" style="ellipse;whiteSpace=wrap;html=1;aspect=fixed;fontSize=22;" vertex="1" parent="1">
          <mxGeometry x="1060" y="725" width="50" height="50" as="geometry" />
        </mxCell>
        <mxCell id="DnzYC_w3bC5qt8FacpLg-70" value="2" style="ellipse;whiteSpace=wrap;html=1;aspect=fixed;fontSize=22;" vertex="1" parent="1">
          <mxGeometry x="1160" y="725" width="50" height="50" as="geometry" />
        </mxCell>
        <mxCell id="DnzYC_w3bC5qt8FacpLg-72" value="f" style="ellipse;whiteSpace=wrap;html=1;aspect=fixed;fontSize=22;" vertex="1" parent="1">
          <mxGeometry x="1010" y="800" width="50" height="50" as="geometry" />
        </mxCell>
        <mxCell id="DnzYC_w3bC5qt8FacpLg-79" style="edgeStyle=none;rounded=0;orthogonalLoop=1;jettySize=auto;html=1;entryX=0.5;entryY=0;entryDx=0;entryDy=0;strokeColor=default;align=center;verticalAlign=middle;fontFamily=Helvetica;fontSize=22;fontColor=default;labelBackgroundColor=default;endArrow=classic;" edge="1" parent="1" source="DnzYC_w3bC5qt8FacpLg-73" target="DnzYC_w3bC5qt8FacpLg-74">
          <mxGeometry relative="1" as="geometry" />
        </mxCell>
        <mxCell id="DnzYC_w3bC5qt8FacpLg-80" style="edgeStyle=none;rounded=0;orthogonalLoop=1;jettySize=auto;html=1;entryX=0.5;entryY=0;entryDx=0;entryDy=0;strokeColor=default;align=center;verticalAlign=middle;fontFamily=Helvetica;fontSize=22;fontColor=default;labelBackgroundColor=default;endArrow=classic;" edge="1" parent="1" source="DnzYC_w3bC5qt8FacpLg-73" target="DnzYC_w3bC5qt8FacpLg-75">
          <mxGeometry relative="1" as="geometry" />
        </mxCell>
        <mxCell id="DnzYC_w3bC5qt8FacpLg-73" value="+" style="ellipse;whiteSpace=wrap;html=1;aspect=fixed;fontSize=22;" vertex="1" parent="1">
          <mxGeometry x="1110" y="800" width="50" height="50" as="geometry" />
        </mxCell>
        <mxCell id="DnzYC_w3bC5qt8FacpLg-74" value="y" style="ellipse;whiteSpace=wrap;html=1;aspect=fixed;fontSize=22;" vertex="1" parent="1">
          <mxGeometry x="1060" y="880" width="50" height="50" as="geometry" />
        </mxCell>
        <mxCell id="DnzYC_w3bC5qt8FacpLg-75" value="1" style="ellipse;whiteSpace=wrap;html=1;aspect=fixed;fontSize=22;" vertex="1" parent="1">
          <mxGeometry x="1150" y="880" width="50" height="50" as="geometry" />
        </mxCell>
        <mxCell id="DnzYC_w3bC5qt8FacpLg-81" value="t1 = y+1&lt;div&gt;t2 = f*t1&lt;/div&gt;&lt;div&gt;t3 = t2+2&lt;/div&gt;&lt;div&gt;x = t3&lt;/div&gt;" style="rounded=0;whiteSpace=wrap;html=1;strokeColor=default;align=center;verticalAlign=middle;fontFamily=Helvetica;fontSize=22;fontColor=default;labelBackgroundColor=default;fillColor=default;" vertex="1" parent="1">
          <mxGeometry x="1280" y="490" width="300" height="430" as="geometry" />
        </mxCell>
      </root>
    </mxGraphModel>
  </diagram>
</mxfile>
